<svg width="36" height="35" viewBox="0 0 36 35" fill="none" xmlns="http://www.w3.org/2000/svg">
<g id="SVG">
<g id="Clip path group">
<mask id="mask0_68_25" style="mask-type:luminance" maskUnits="userSpaceOnUse" x="1" y="0" width="34" height="35">
<g id="clip0_132_4989">
<path id="Vector" d="M35 0.689941H1V34.6899H35V0.689941Z" fill="white"/>
</g>
</mask>
<g mask="url(#mask0_68_25)">
<g id="Group">
<path id="Vector_2" d="M30.1539 13.649H27.4432C26.5374 12.319 25.3322 11.2072 23.9281 10.4143C22.3558 9.52638 20.5704 9.05713 18.765 9.05713H18C17.4451 9.05713 16.9953 9.50693 16.9953 10.0618V13.649H5.8461C3.39815 13.649 1.36964 15.4739 1.04617 17.8344C1.04254 17.8572 1.03943 17.88 1.03735 17.9034C1.01375 18.0977 1 18.2948 1 18.4953V22.3368C1 22.8916 1.4498 23.3414 2.00465 23.3414H5.51978C5.96672 25.068 7.5379 26.3466 9.40221 26.3466C11.2665 26.3466 12.8377 25.068 13.2846 23.3414H22.7154C23.1626 25.068 24.7335 26.3466 26.5978 26.3466C28.4621 26.3466 30.033 25.068 30.4802 23.3414H33.9953C34.5502 23.3414 35 22.8916 35 22.3368V18.4953C35 15.823 32.826 13.649 30.1539 13.649ZM19.0047 11.07C21.2251 11.1336 23.3312 12.0806 24.8588 13.649H19.0047V11.07ZM3.00931 18.9939H4.56104C5.11589 18.9939 5.56569 18.5441 5.56569 17.9892C5.56569 17.4344 5.11589 16.9846 4.56104 16.9846H3.44691C3.94989 16.1885 4.83704 15.6585 5.8461 15.6585H16.9953V21.3321H13.2846C12.8374 19.6056 11.2665 18.3267 9.40221 18.3267C7.5379 18.3267 5.96698 19.6056 5.51978 21.3321H3.00931V18.9939ZM11.4027 22.3368C11.4027 23.44 10.5054 24.3373 9.40221 24.3373C8.29898 24.3373 7.40172 23.44 7.40172 22.3368C7.40172 21.2336 8.29898 20.3363 9.40221 20.3363C10.5054 20.3363 11.4027 21.2336 11.4027 22.3368ZM28.5983 22.3368C28.5983 23.44 27.701 24.3373 26.5978 24.3373C25.4946 24.3373 24.5973 23.44 24.5973 22.3368C24.5973 21.2336 25.4946 20.3363 26.5978 20.3363C27.701 20.3363 28.5983 21.2336 28.5983 22.3368ZM30.4802 21.3321C30.0333 19.6056 28.4621 18.3267 26.5978 18.3267C24.7335 18.3267 23.1623 19.6056 22.7154 21.3321H19.0047V15.6585H30.1539C31.1451 15.6585 32.019 16.1701 32.5264 16.9426H30.9715C30.4167 16.9426 29.9669 17.3924 29.9669 17.9472C29.9669 18.5021 30.4167 18.9521 30.9715 18.9521H32.9907V21.3321H30.4802Z" fill="#050B20"/>
</g>
</g>
</g>
</g>
</svg>
