<svg width="34" height="35" viewBox="0 0 34 35" fill="none" xmlns="http://www.w3.org/2000/svg">
<g id="SVG">
<g id="Clip path group">
<mask id="mask0_68_80" style="mask-type:luminance" maskUnits="userSpaceOnUse" x="0" y="0" width="34" height="35">
<g id="clip0_132_4969">
<path id="Vector" d="M34 0.689941H0V34.6899H34V0.689941Z" fill="white"/>
</g>
</mask>
<g mask="url(#mask0_68_80)">
<g id="Group">
<path id="Vector_2" d="M32.8913 22.1247H31.7826V16.5813C31.7826 14.7472 30.2905 13.2552 28.4565 13.2552H24.8209L23.3616 8.87724C22.908 7.51698 21.6399 6.60303 20.2061 6.60303C20.0334 6.60303 8.04731 6.60303 7.76083 6.60303C6.31543 6.60303 5.08313 7.52999 4.62546 8.8204H3.32609C1.49208 8.8204 0 10.3125 0 12.1464V16.5813C0 18.4153 1.49208 19.9073 3.32609 19.9073H4.43481V22.1247H3.32609C2.71382 22.1247 2.21737 22.6211 2.21737 23.2334C2.21737 23.8458 2.71376 24.3422 3.32609 24.3422C4.36442 24.3422 5.6104 24.3422 6.65218 24.3422C6.65218 26.7875 8.64164 28.777 11.087 28.777C13.5323 28.777 15.5218 26.7875 15.5218 24.3422H20.6957C20.6957 26.7875 22.6852 28.777 25.1305 28.777C27.5759 28.777 29.5653 26.7875 29.5653 24.3422C30.6074 24.3422 31.8538 24.3422 32.8914 24.3422C33.5037 24.3422 34.0001 23.8458 34.0001 23.2334C34.0001 22.6211 33.5036 22.1247 32.8913 22.1247ZM4.43481 17.6899H3.32609C2.71475 17.6899 2.21737 17.1925 2.21737 16.5812V12.1464C2.21737 11.535 2.71475 11.0377 3.32609 11.0377H4.43481C4.43481 11.7441 4.43481 17.0049 4.43481 17.6899ZM15.5217 8.8204H17.3696H20.2061C20.6841 8.8204 21.1068 9.12507 21.2579 9.57842L22.4834 13.2551H15.5217V8.8204ZM6.65218 9.92905C6.65218 9.31771 7.14956 8.82033 7.7609 8.82033H13.3044V13.2551H6.65218V9.92905ZM11.087 26.5595C9.86432 26.5595 8.86962 25.5648 8.86962 24.3421C8.86962 23.1194 9.86432 22.1247 11.087 22.1247C12.3097 22.1247 13.3044 23.1194 13.3044 24.3421C13.3044 25.5648 12.3097 26.5595 11.087 26.5595ZM25.1304 26.5595C23.9078 26.5595 22.9131 25.5648 22.9131 24.3421C22.9131 23.1194 23.9078 22.1247 25.1304 22.1247C26.3531 22.1247 27.3478 23.1194 27.3478 24.3421C27.3478 25.5648 26.3531 26.5595 25.1304 26.5595ZM29.5652 22.1247H28.9686C28.2005 20.8005 26.7683 19.9073 25.1304 19.9073C23.4926 19.9073 22.0604 20.8005 21.2923 22.1247H14.9251C14.1571 20.8005 12.7248 19.9073 11.087 19.9073C9.44914 19.9073 8.01689 20.8005 7.24884 22.1247H6.65225V18.7986V15.4725C8.46022 15.4725 27.2694 15.4725 28.4566 15.4725C29.0679 15.4725 29.5653 15.9699 29.5653 16.5813L29.5652 22.1247Z" fill="#050B20"/>
<path id="Vector_3" d="M18.8481 17.6899H16.6307C16.0184 17.6899 15.522 18.1863 15.522 18.7986C15.522 19.4109 16.0184 19.9073 16.6307 19.9073H18.8481C19.4603 19.9073 19.9568 19.411 19.9568 18.7986C19.9568 18.1863 19.4604 17.6899 18.8481 17.6899Z" fill="#050B20"/>
</g>
</g>
</g>
</g>
</svg>
