<svg width="34" height="35" viewBox="0 0 34 35" fill="none" xmlns="http://www.w3.org/2000/svg">
<g id="SVG">
<path id="Vector" d="M26.5625 14.5023H25.3194C25.1795 14.5032 25.0409 14.4764 24.9115 14.4235C24.782 14.3706 24.6643 14.2927 24.565 14.1942L21.7387 11.368C21.0418 10.671 20.2132 10.1196 19.3012 9.74564C18.3891 9.37171 17.4119 9.1828 16.4263 9.18989H7.4375C6.02854 9.18989 4.67728 9.7496 3.681 10.7458C2.68471 11.7421 2.125 13.0934 2.125 14.5023V19.8148C2.125 20.6602 2.46083 21.471 3.0586 22.0688C3.65637 22.6665 4.46712 23.0023 5.3125 23.0023C5.3125 23.9886 5.7043 24.9345 6.4017 25.6319C7.0991 26.3293 8.04498 26.7211 9.03125 26.7211C10.0175 26.7211 10.9634 26.3293 11.6608 25.6319C12.3582 24.9345 12.75 23.9886 12.75 23.0023H20.2938C20.4112 23.8913 20.8478 24.7073 21.5221 25.2984C22.1965 25.8895 23.0626 26.2154 23.9594 26.2154C24.8561 26.2154 25.7223 25.8895 26.3966 25.2984C27.071 24.7073 27.5075 23.8913 27.625 23.0023H28.6875C29.5329 23.0023 30.3436 22.6665 30.9414 22.0688C31.5392 21.471 31.875 20.6602 31.875 19.8148C31.875 18.4059 31.3153 17.0546 30.319 16.0583C29.3227 15.0621 27.9715 14.5023 26.5625 14.5023ZM16.4794 11.3148C17.1775 11.3136 17.869 11.45 18.5144 11.7161C19.1598 11.9823 19.7464 12.3731 20.2406 12.8661L21.8769 14.5023H8.755C8.55699 14.5037 8.36253 14.4497 8.19357 14.3465C8.0246 14.2432 7.88785 14.0948 7.79875 13.918L6.56625 11.453C6.84804 11.3633 7.14178 11.3167 7.4375 11.3148H16.4794ZM4.25 19.8148V14.5023C4.25058 13.8571 4.44694 13.2273 4.81313 12.6961L5.87563 14.8211C6.13626 15.3632 6.54495 15.8204 7.05446 16.14C7.56398 16.4597 8.15353 16.6286 8.755 16.6273H14.875V20.8773H12.3781C12.0797 20.2418 11.6064 19.7043 11.0137 19.3279C10.421 18.9514 9.7334 18.7515 9.03125 18.7515C8.3291 18.7515 7.64146 18.9514 7.04876 19.3279C6.45607 19.7043 5.98282 20.2418 5.68437 20.8773H5.3125C5.03071 20.8773 4.76046 20.7654 4.5612 20.5662C4.36194 20.3669 4.25 20.0966 4.25 19.8148ZM9.03125 24.0648C8.71604 24.0648 8.4079 23.9714 8.14581 23.7963C7.88372 23.6211 7.67944 23.3722 7.55882 23.081C7.43819 22.7898 7.40663 22.4693 7.46812 22.1602C7.52962 21.851 7.68141 21.567 7.9043 21.3441C8.12719 21.1213 8.41117 20.9695 8.72032 20.908C9.02948 20.8465 9.34993 20.878 9.64115 20.9987C9.93237 21.1193 10.1813 21.3236 10.3564 21.5857C10.5315 21.8477 10.625 22.1559 10.625 22.4711C10.625 22.8938 10.4571 23.2992 10.1582 23.598C9.85932 23.8969 9.45394 24.0648 9.03125 24.0648ZM23.9062 24.0648C23.591 24.0648 23.2829 23.9714 23.0208 23.7963C22.7587 23.6211 22.5544 23.3722 22.4338 23.081C22.3132 22.7898 22.2816 22.4693 22.3431 22.1602C22.4046 21.851 22.5564 21.567 22.7793 21.3441C23.0022 21.1213 23.2862 20.9695 23.5953 20.908C23.9045 20.8465 24.2249 20.878 24.5162 20.9987C24.8074 21.1193 25.0563 21.3236 25.2314 21.5857C25.4065 21.8477 25.5 22.1559 25.5 22.4711C25.5 22.8938 25.3321 23.2992 25.0332 23.598C24.7343 23.8969 24.3289 24.0648 23.9062 24.0648ZM28.6875 20.8773H27.2531C26.9547 20.2418 26.4814 19.7043 25.8887 19.3279C25.296 18.9514 24.6084 18.7515 23.9062 18.7515C23.2041 18.7515 22.5165 18.9514 21.9238 19.3279C21.3311 19.7043 20.8578 20.2418 20.5594 20.8773H17V16.6273H26.5625C27.0081 16.6297 27.4482 16.7255 27.8545 16.9085C28.2608 17.0916 28.6242 17.3577 28.9212 17.6898H28.6875C28.4057 17.6898 28.1355 17.8018 27.9362 18.001C27.7369 18.2003 27.625 18.4706 27.625 18.7523C27.625 19.0341 27.7369 19.3044 27.9362 19.5037C28.1355 19.7029 28.4057 19.8148 28.6875 19.8148H29.75C29.75 20.0966 29.6381 20.3669 29.4388 20.5662C29.2395 20.7654 28.9693 20.8773 28.6875 20.8773Z" fill="#050B20"/>
</g>
</svg>
