<svg width="34" height="35" viewBox="0 0 34 35" fill="none" xmlns="http://www.w3.org/2000/svg">
<g id="SVG">
<path id="Vector" d="M30.5394 16.4362L26.3033 14.7425L23.8414 8.99763C23.3378 7.82356 22.1882 7.06494 20.9111 7.06494H11.1658C9.75056 7.06494 8.48938 8.01588 8.1005 9.37694L6.63637 14.5024H4.25C3.07806 14.5024 2.125 15.4555 2.125 16.6274V23.0024C2.125 24.1743 3.07806 25.1274 4.25 25.1274H6.52588C7.00081 26.9549 8.65088 28.3149 10.625 28.3149C12.5991 28.3149 14.2492 26.9549 14.7241 25.1274H19.2759C19.7508 26.9549 21.4009 28.3149 23.375 28.3149C25.3491 28.3149 26.9992 26.9549 27.4741 25.1274H29.75C30.9219 25.1274 31.875 24.1743 31.875 23.0024V18.4092C31.875 17.5348 31.3512 16.7602 30.5394 16.4362ZM10.625 26.1899C9.45306 26.1899 8.5 25.2368 8.5 24.0649C8.5 22.893 9.45306 21.9399 10.625 21.9399C11.7969 21.9399 12.75 22.893 12.75 24.0649C12.75 25.2368 11.7969 26.1899 10.625 26.1899ZM23.375 26.1899C22.2031 26.1899 21.25 25.2368 21.25 24.0649C21.25 22.893 22.2031 21.9399 23.375 21.9399C24.5469 21.9399 25.5 22.893 25.5 24.0649C25.5 25.2368 24.5469 26.1899 23.375 26.1899ZM29.75 23.0024H27.4741C26.9992 21.1749 25.3491 19.8149 23.375 19.8149C21.4009 19.8149 19.7508 21.1749 19.2759 23.0024H14.7241C14.2492 21.1749 12.5991 19.8149 10.625 19.8149C8.65088 19.8149 7.00081 21.1749 6.52588 23.0024H4.25V16.6274H7.4375C7.91138 16.6274 8.32894 16.3129 8.45856 15.8571L10.1426 9.96131C10.2733 9.50656 10.693 9.18994 11.1658 9.18994H20.9111C21.3361 9.18994 21.7196 9.44281 21.8875 9.83381L24.5225 15.9835C24.633 16.2428 24.8423 16.4468 25.1037 16.552L29.75 18.4092V23.0024Z" fill="#050B20"/>
<path id="Vector_2" d="M15.3481 19.6364C14.8604 19.3113 14.7287 18.6515 15.0538 18.1627L16.077 16.6274H14.8753C14.4833 16.6274 14.1231 16.4117 13.9382 16.0664C13.7533 15.7211 13.7735 15.3014 13.9913 14.9763L16.1163 11.7888C16.4414 11.3001 17.1013 11.1683 17.59 11.4945C18.0777 11.8196 18.2094 12.4794 17.8843 12.9682L16.8611 14.5024H18.0628C18.4549 14.5024 18.8151 14.7181 18.9999 15.0634C19.1848 15.4087 19.1646 15.8284 18.9468 16.1536L16.8218 19.3411C16.4956 19.8309 15.8348 19.9616 15.3481 19.6364Z" fill="#050B20"/>
</g>
</svg>
