<svg width="36" height="35" viewBox="0 0 36 35" fill="none" xmlns="http://www.w3.org/2000/svg">
<g id="SVG">
<g id="Clip path group">
<mask id="mask0_68_13" style="mask-type:luminance" maskUnits="userSpaceOnUse" x="1" y="0" width="34" height="35">
<g id="clip0_132_4978">
<path id="Vector" d="M35 0.689941H1V34.6899H35V0.689941Z" fill="white"/>
</g>
</mask>
<g mask="url(#mask0_68_13)">
<g id="Group">
<path id="Vector_2" d="M31.759 16.2772L25.8898 15.2985C25.5466 14.7411 24.8644 13.7328 23.8725 12.7226C21.8927 10.7063 19.6133 9.64062 17.2806 9.64062H7.7225C6.16993 9.64062 4.73044 10.4801 3.96577 11.8313L1.3319 16.4861C1.32765 16.4936 1.32446 16.5014 1.32041 16.509C1.11668 16.8736 1 17.2932 1 17.7398V22.6447C1 23.1948 1.44598 23.6407 1.99609 23.6407H5.18632C5.65455 24.8659 6.848 25.7393 8.24339 25.7393C9.63879 25.7393 10.8322 24.8659 11.3005 23.6407H23.672C24.1402 24.8659 25.3336 25.7393 26.729 25.7393C28.1244 25.7393 29.3178 24.8659 29.786 23.6407H34.0039C34.554 23.6407 35 23.1948 35 22.6447V20.0077C35 18.1391 33.6077 16.5381 31.759 16.2772ZM23.3976 15.2081H16.222V11.6328H17.2806C20.104 11.6328 22.2363 13.7201 23.3976 15.2081ZM9.57371 11.6328H14.2299V15.2081H9.57371V11.6328ZM5.69964 12.8124C6.08811 12.1259 6.80012 11.6852 7.58152 11.6376V15.2081H4.34402L5.69964 12.8124ZM8.24339 23.7471C7.53929 23.7471 6.96647 23.1839 6.96647 22.4915C6.96647 21.7992 7.53929 21.2359 8.24339 21.2359C8.9475 21.2359 9.52032 21.7992 9.52032 22.4915C9.52032 23.1839 8.9475 23.7471 8.24339 23.7471ZM26.729 23.7471C26.0248 23.7471 25.452 23.1839 25.452 22.4915C25.452 21.7992 26.0249 21.2359 26.729 21.2359C27.4331 21.2359 28.0059 21.7992 28.0059 22.4915C28.0059 23.1839 27.4331 23.7471 26.729 23.7471ZM29.8857 21.6485C29.5111 20.2652 28.2381 19.2437 26.729 19.2437C25.2198 19.2437 23.9469 20.2652 23.5721 21.6485H11.4001C11.0255 20.2652 9.75254 19.2437 8.24339 19.2437C6.73425 19.2437 5.4613 20.2652 5.08657 21.6485H2.99219V17.7398C2.99219 17.4423 3.23417 17.2003 3.53167 17.2003H25.183L31.4445 18.2445C31.4541 18.2461 31.4637 18.2476 31.4734 18.2489C31.6428 18.2721 31.804 18.3194 31.9541 18.3866C31.5374 18.5058 31.232 18.8887 31.232 19.3437C31.232 19.8938 31.678 20.3398 32.2281 20.3398H33.0078V21.6486L29.8857 21.6485Z" fill="#050B20"/>
</g>
</g>
</g>
</g>
</svg>
