<svg width="36" height="35" viewBox="0 0 36 35" fill="none" xmlns="http://www.w3.org/2000/svg">
<g id="SVG">
<g id="Clip path group">
<mask id="mask0_68_72" style="mask-type:luminance" maskUnits="userSpaceOnUse" x="1" y="0" width="34" height="35">
<g id="clip0_132_5052">
<path id="Vector" d="M35 0.689941H1V34.6899H35V0.689941Z" fill="white"/>
</g>
</mask>
<g mask="url(#mask0_68_72)">
<g id="Group">
<path id="Vector_2" d="M32.7415 14.8458L30.7088 8.80815C30.1364 7.10882 28.5473 5.96729 26.7543 5.96729H23.2242C22.3084 5.96729 21.564 6.71237 21.564 7.62745V14.8444H1.99609C1.44625 14.8444 1 15.2907 1 15.8405V23.444C1 24.7257 2.04258 25.7683 3.32422 25.7683H5.0727C5.52957 27.8501 7.38895 29.4126 9.60559 29.4126C11.8222 29.4126 13.6809 27.8501 14.1378 25.7683H23.8491C24.3059 27.8501 26.1646 29.4126 28.3813 29.4126C30.6026 29.4126 32.4646 27.8435 32.9168 25.7556C34.0856 25.6348 35 24.644 35 23.444V17.1686C35 15.9089 33.9926 14.8803 32.7415 14.8458ZM26.7543 7.95948C27.6913 7.95948 28.5221 8.5558 28.8202 9.44366L30.6391 14.8444L23.5562 14.8445V7.95948H26.7543ZM2.99219 23.444V16.8366H21.564V23.7761H14.1378C13.6809 21.6949 11.8222 20.1324 9.60559 20.1324C7.38895 20.1324 5.52957 21.6949 5.0727 23.7761H3.32422C3.14094 23.7761 2.99219 23.6273 2.99219 23.444ZM9.60559 27.4204C7.72848 27.4204 6.44445 25.509 7.15188 23.7761C7.54633 22.8085 8.49727 22.1245 9.60559 22.1245C10.7139 22.1245 11.6642 22.8085 12.0586 23.7761C12.7642 25.5046 11.4869 27.4204 9.60559 27.4204ZM23.5562 16.8367C24.3715 16.8367 31.6649 16.8366 32.6758 16.8366C32.8591 16.8366 33.0078 16.9854 33.0078 17.1686C32.964 23.632 33.1103 23.506 32.8949 23.6924C32.4068 21.6531 30.568 20.1324 28.3813 20.1324C26.1646 20.1324 24.3059 21.6949 23.8491 23.7761H23.5562V16.8367ZM25.9282 25.7683C25.2208 24.0351 26.5055 22.1245 28.3813 22.1245C30.2492 22.1245 31.5465 24.0252 30.835 25.7683C29.9394 27.9666 26.8241 27.9673 25.9282 25.7683Z" fill="#050B20"/>
</g>
</g>
</g>
</g>
</svg>
