<svg width="48" height="48" viewBox="0 0 48 48" fill="none" xmlns="http://www.w3.org/2000/svg">
<g clip-path="url(#clip0_0_638)">
<path d="M11.2155 19.1197C11.3584 18.7985 11.4811 18.5376 12.3801 18.5376H17.5701C17.8562 18.5376 18.1421 18.3971 18.1421 17.996V16.5718C18.1421 16.4103 18.3057 16.1894 18.7347 16.1894H29.4825C29.7888 16.1894 30.0343 16.3501 30.0343 16.7314V17.8555C30.0343 18.1564 30.1772 18.4774 30.6267 18.4774H39.2493C39.5556 18.4774 39.9643 18.5574 39.7806 18.9391C39.5965 19.32 36.7975 24.8975 36.6076 25.2701C36.5347 25.4129 36.478 25.6034 35.9113 25.6034H30.6108C30.3595 25.6034 29.9467 25.6034 29.9467 26.0806V27.408C29.9467 27.5989 29.8013 27.8853 29.3398 27.8853H18.7057C18.3737 27.8853 18.131 27.7177 18.131 27.3921V26.2234C18.131 25.969 17.9933 25.5958 17.605 25.5958H8.67847C8.39495 25.5958 8.12797 25.3809 8.298 24.968C8.46803 24.5543 11.2155 19.1197 11.2155 19.1197Z" fill="#C7D6EE"/>
<path d="M8.98029 24.3475L9.22838 24.3483L11.6673 19.5822L11.4191 19.5814L8.98029 24.3475Z" fill="url(#paint0_linear_0_638)"/>
<path d="M17.6261 25.0206H9.27746C8.9862 25.0206 8.88405 24.89 8.99744 24.6675C9.62961 23.4326 11.7084 19.3715 11.7623 19.2637C11.8255 19.1369 11.9786 18.9819 12.2613 18.9819H17.8636C18.4447 18.9819 18.5438 18.7324 18.5438 18.2817V16.9395C18.5438 16.7589 18.6657 16.6389 18.8801 16.6389H29.1411C29.4166 16.6389 29.5387 16.7284 29.5387 16.9089V17.9005C29.5387 18.2913 29.4635 18.922 30.3502 18.922H38.829C39.2098 18.922 39.3086 19.1742 39.1071 19.5734C38.3568 21.06 36.5105 24.5848 36.4531 24.7044C36.3803 24.8564 36.1545 24.9902 35.7938 24.9902H30.2283C29.7691 24.9902 29.3106 25.2906 29.3106 25.7416V26.887C29.3106 27.0957 29.183 27.2435 28.9561 27.2435H18.9998C18.6918 27.2435 18.5742 27.0722 18.5742 26.8436V25.8015C18.5742 25.4412 18.3295 25.0206 17.6261 25.0206Z" fill="#E9CF98"/>
<path d="M28.7596 24.7518L29.929 25.9489C29.929 25.9489 30.0125 25.6864 30.3295 25.6213L29.02 24.4215C29.02 24.4215 28.8097 24.5384 28.7596 24.7518Z" fill="white"/>
<path d="M17.6532 25.6045C17.6532 25.6045 18.121 25.6213 18.121 26.228L19.2065 24.6531L18.9059 24.4397L17.6532 25.6045Z" fill="white"/>
<path d="M29.1912 19.6407L30.4243 18.4603C30.4243 18.4603 30.2571 18.4402 30.0896 18.1732L28.867 19.3947L29.1912 19.6407Z" fill="white"/>
<path d="M28.658 17.229L29.7972 16.2748C29.7972 16.2748 29.9226 16.3464 29.9748 16.4595L28.7835 17.5371L28.658 17.229Z" fill="white"/>
<path d="M18.1502 16.6203C18.1502 16.4227 18.3371 16.1895 18.6431 16.1895L19.5073 17.2389C19.5073 17.2389 19.2486 17.2389 19.208 17.3326C19.1669 17.4263 19.1261 17.6271 19.1261 17.6271L18.1502 16.6203Z" fill="white"/>
<path d="M17.7772 18.5102C17.7772 18.5102 18.1465 18.4527 18.1465 18.065L19.0032 19.055L18.4572 19.4426L17.7772 18.5102Z" fill="white"/>
<path d="M24.1119 16.1895L24.0725 16.6409H29.0093C29.1712 16.6409 29.2623 16.6809 29.3234 16.8002L29.8701 16.3228C29.8701 16.3228 29.7328 16.1895 29.4825 16.1895H24.1119Z" fill="url(#paint1_linear_0_638)"/>
<path d="M18.643 16.1895C18.5114 16.1895 18.3594 16.2534 18.2787 16.3525L18.633 16.7303C18.633 16.7303 18.7038 16.6409 18.9873 16.6409H24.0725L24.1119 16.1895H18.643Z" fill="url(#paint2_linear_0_638)"/>
<path d="M18.1502 16.6202V17.996C18.1502 18.212 18.1062 18.2649 18.1062 18.2649L18.4971 18.6729C18.4971 18.6729 18.553 18.532 18.553 18.4454V17.0823C18.553 16.9962 18.5608 16.8708 18.5608 16.8708L18.1938 16.4244C18.1938 16.4244 18.1502 16.5024 18.1502 16.6202Z" fill="url(#paint3_linear_0_638)"/>
<path d="M29.5466 16.829C29.5466 16.829 29.536 16.989 29.536 17.0751C29.536 17.1611 29.5466 18.3232 29.5466 18.4095C29.5466 18.4956 29.6742 18.6552 29.6742 18.6552L30.142 18.2487C30.142 18.2487 30.031 18.2121 30.031 17.9961V16.6204C30.031 16.5025 29.9329 16.4245 29.9329 16.4245L29.5466 16.829Z" fill="url(#paint4_linear_0_638)"/>
<path d="M17.5996 18.5393C17.453 18.5393 12.4168 18.545 12.1485 18.545C11.7591 18.545 11.5301 18.7137 11.5301 18.7137L11.8504 19.137C11.8504 19.137 11.9785 18.9818 12.2613 18.9818H17.9441C18.1421 18.9818 18.2908 18.8939 18.2908 18.8939L17.9194 18.4559C17.9194 18.4559 17.7371 18.5393 17.5996 18.5393Z" fill="url(#paint5_linear_0_638)"/>
<path d="M8.8298 24.7044L8.24908 25.1044C8.24908 25.1044 8.20304 25.2697 8.28981 25.4003C8.37678 25.5306 8.50958 25.5508 8.50958 25.5508L9.26542 25.0205C9.26542 25.0205 8.83765 25.0007 9.01563 24.6895C9.19362 24.3784 9.18396 24.2611 9.18396 24.2611C9.18396 24.2611 8.97628 24.2946 8.8298 24.7044Z" fill="url(#paint6_linear_0_638)"/>
<path d="M10.4244 20.7877C9.96131 21.7238 8.40593 24.7311 8.35151 24.8385C8.29699 24.9455 8.24237 25.1326 8.24237 25.1326L8.84176 24.7044L11.6503 19.2088C11.6503 19.2088 10.8876 19.851 10.4244 20.7877Z" fill="url(#paint7_linear_0_638)"/>
<path d="M9.27739 25.0336L8.50702 25.5779C8.50702 25.5779 17.282 25.5992 17.5037 25.5992C17.7251 25.5992 17.8181 25.6407 17.8181 25.6407L18.2133 25.1997C18.2133 25.1997 17.8358 25.0336 17.6261 25.0336H9.27739Z" fill="url(#paint8_linear_0_638)"/>
<path d="M18.0432 25.8819C18.0432 25.8819 18.124 26.0414 18.124 26.1687V27.3083C18.124 27.4713 18.1887 27.6127 18.1887 27.6127L18.5743 27.1666V25.8014C18.5743 25.5836 18.452 25.4004 18.452 25.4004L18.0432 25.8819Z" fill="url(#paint9_linear_0_638)"/>
<path d="M29.3093 25.6604V27.0256L29.9143 27.5455C29.9143 27.5455 29.9294 27.4069 29.9294 27.2443V26.1041C29.9294 25.977 29.9668 25.897 29.9668 25.897L29.4379 25.3775C29.4379 25.3775 29.3093 25.4422 29.3093 25.6604Z" fill="url(#paint10_linear_0_638)"/>
<path d="M28.8567 27.2534H24.0998V27.8876H29.3636C29.5426 27.8876 29.7512 27.7707 29.7909 27.741L29.1944 27.1853C29.1944 27.1853 29.155 27.2534 28.8567 27.2534Z" fill="url(#paint11_linear_0_638)"/>
<path d="M18.3701 27.8084C18.3701 27.8084 18.4926 27.8937 18.835 27.8937C19.1771 27.8937 24.0998 27.8875 24.0998 27.8875V27.2534H19.0189C18.927 27.2534 18.8655 27.2366 18.8655 27.2366L18.3701 27.8084Z" fill="url(#paint12_linear_0_638)"/>
<path d="M19.7366 17.2259C19.461 17.2259 19.1859 17.3764 19.1859 17.6769V19.1492C19.1859 19.4493 19.0022 19.5696 18.7881 19.5696H12.6966C12.4492 19.5696 12.2577 19.671 12.1477 19.8755C12.0577 20.0435 10.5364 23.0381 10.0448 24.0059C9.93822 24.2158 10.0313 24.3434 10.3049 24.3434H18.819C19.1859 24.3434 19.2472 24.6741 19.2472 25.0043V26.1484C19.2472 26.3592 19.4611 26.5995 19.7059 26.5995H23.9891V17.2259H19.7366Z" fill="url(#paint13_linear_0_638)"/>
<path d="M29.7104 25.1591L30.2008 25.6543C30.2008 25.6543 30.3232 25.5877 30.8956 25.5877H36.1263C36.2351 25.5877 36.3849 25.5341 36.3849 25.5341L33.62 24.9856C33.62 24.9856 30.4187 24.9878 30.2689 24.9856C30.2633 24.9855 30.2577 24.9854 30.2521 24.9854C29.9275 24.9854 29.7104 25.1591 29.7104 25.1591Z" fill="url(#paint14_linear_0_638)"/>
<path d="M29.8945 18.8344C29.8945 18.8344 30.1336 18.9128 30.3288 18.9128H38.5647C38.8154 18.9128 38.9616 18.9312 38.9616 18.9312L39.6272 18.5415C39.6272 18.5415 39.4136 18.4816 39.2001 18.4816H30.6467C30.433 18.4816 30.3439 18.4326 30.3439 18.4326L29.8945 18.8344Z" fill="url(#paint15_linear_0_638)"/>
<path d="M39.2043 19.1418C39.2043 19.1418 39.242 19.347 39.1708 19.4865C39.0998 19.6259 36.6105 24.4344 36.4982 24.6553C36.3855 24.8759 36.1315 24.9574 36.1315 24.9574L36.4152 25.5145C36.4152 25.5145 36.5157 25.4395 36.575 25.3638C36.6341 25.2884 39.697 19.1669 39.7917 18.9522C39.8861 18.7373 39.8032 18.6596 39.8032 18.6596L39.2043 19.1418Z" fill="url(#paint16_linear_0_638)"/>
<path d="M35.8674 24.9988C35.5405 24.9988 33.7015 25.0125 33.7015 25.0125L36.3168 25.5341C36.3168 25.5341 36.4804 25.4677 36.5622 25.3333C36.6441 25.1995 36.562 25.1595 36.4667 25.2397C36.3716 25.3204 36.2081 25.1866 36.2896 25.0929C36.3716 24.9988 36.453 24.7044 36.453 24.7044C36.453 24.7044 36.1945 24.9988 35.8674 24.9988Z" fill="url(#paint17_linear_0_638)"/>
<path d="M11.5372 24.5849C9.8244 24.6972 9.2774 25.0153 9.2774 25.0153H17.4565C18.3866 25.0153 18.2805 25.1402 18.2753 25.1458L18.9412 24.4542C18.9412 24.4542 17.3234 24.4542 16.2956 24.4356C16.1649 24.4332 16.0184 24.4321 15.8583 24.4321C14.7598 24.4321 13.0323 24.4871 11.5372 24.5849ZM18.2751 25.146C18.2751 25.146 18.2752 25.1459 18.2753 25.1458L18.2751 25.146Z" fill="url(#paint18_linear_0_638)"/>
<path d="M30.829 24.4355C30.1013 24.4541 28.9555 24.4541 28.9555 24.4541L29.7191 25.1603C29.7191 25.1603 29.7977 24.9951 30.4714 24.9951C31.1456 24.9951 36.0037 24.9786 36.0037 24.9786C36.0037 24.9786 36.0856 24.7177 34.6552 24.6175C33.5283 24.5384 31.8278 24.4335 31.0058 24.4335C30.9412 24.4335 30.8821 24.4342 30.829 24.4355Z" fill="url(#paint19_linear_0_638)"/>
<path d="M29.0984 19.6434C29.0984 19.6434 30.2443 19.6434 30.9723 19.6621C31.7 19.6807 36.1117 19.4843 37.3252 19.372C38.5384 19.2599 38.9256 18.9419 38.9256 18.9419C38.9256 18.9419 31.2119 18.9823 30.5379 18.9823C29.8644 18.9823 29.9584 18.8512 29.9584 18.8512L29.0984 19.6434Z" fill="url(#paint20_linear_0_638)"/>
<path d="M18.4926 25.4206C18.4926 25.4206 18.5744 25.6811 18.5744 25.8819V26.785C18.5744 27.0256 18.6563 27.1464 18.6563 27.1464L19.3509 26.4638C19.3509 26.4638 19.2472 26.2231 19.2472 26.0425V25.0244C19.2472 24.7889 19.1874 24.5975 19.1874 24.5975L18.4926 25.4206Z" fill="url(#paint21_linear_0_638)"/>
<path d="M28.6859 25.0186C28.6859 25.2541 28.6696 25.884 28.6696 26.065C28.6696 26.2451 28.6273 26.4638 28.6273 26.4638L29.322 27.1464C29.322 27.1464 29.404 27.0256 29.404 26.785V25.8819C29.404 25.6811 29.4857 25.4206 29.4857 25.4206L28.7418 24.5784C28.7418 24.5784 28.6859 24.7837 28.6859 25.0186Z" fill="url(#paint22_linear_0_638)"/>
<path d="M18.881 27.2264L23.9482 27.2664L23.9687 27.2659V26.5994L19.5552 26.5838L18.881 27.2264Z" fill="url(#paint23_linear_0_638)"/>
<path d="M23.9891 26.5995H23.9687V27.266L29.179 27.2066L28.3413 26.5838L23.9891 26.5995Z" fill="url(#paint24_linear_0_638)"/>
<path d="M18.9495 16.6371C18.8064 16.6371 18.674 16.7128 18.674 16.7128L19.3456 17.3618C19.3456 17.3618 19.4118 17.2209 19.8851 17.2209H23.9891V16.6371H18.9495Z" fill="url(#paint25_linear_0_638)"/>
<path d="M23.9891 16.6371V17.2209H28.093C28.5662 17.2209 28.6642 17.4232 28.6642 17.4232L29.3356 16.7745C29.3356 16.7745 29.1719 16.6371 29.0288 16.6371H23.9891Z" fill="url(#paint26_linear_0_638)"/>
<path d="M18.5459 17.2041V18.3826C18.5459 18.5224 18.4835 18.6881 18.4835 18.6881L19.1412 19.4213C19.1412 19.4213 19.1856 19.3603 19.1856 19.055C19.1856 18.7494 19.2121 17.5538 19.2121 17.5538L18.5546 16.8293C18.5546 16.8293 18.5459 17.0209 18.5459 17.2041Z" fill="url(#paint27_linear_0_638)"/>
<path d="M28.6917 17.5678V19.0332C28.6917 19.3387 28.8372 19.4213 28.8372 19.4213L29.641 18.626C29.641 18.626 29.5362 18.4596 29.5362 18.3202C29.5362 18.1804 29.5294 17.3283 29.5294 17.1451C29.5294 16.9618 29.5376 16.7924 29.5376 16.7924L28.6917 17.5678Z" fill="url(#paint28_linear_0_638)"/>
<path d="M18.0023 18.9982H12.363C12.1996 18.9982 11.9338 19.0584 11.8521 19.1388L12.363 19.6606C12.363 19.6606 12.5059 19.5604 12.8534 19.5604H18.7174C18.881 19.5604 19.0443 19.4999 19.0443 19.4999L18.3907 18.8379C18.3907 18.8379 18.227 18.9982 18.0023 18.9982Z" fill="url(#paint29_linear_0_638)"/>
<path d="M35.5665 24.3654C35.5665 24.3654 35.8823 24.2489 35.981 24.6172C35.981 24.6172 36.0598 24.7338 36.2769 24.4233C36.494 24.1133 38.5467 19.966 38.5264 19.9074C38.5066 19.8495 38.0922 19.7717 38.0922 19.7717L35.5665 24.3654Z" fill="url(#paint30_linear_0_638)"/>
<path d="M38.1516 19.811C38.2506 19.869 38.3491 19.9467 38.211 20.2372C38.073 20.5275 36.4942 23.5514 36.1589 24.1326C35.8234 24.7139 36.119 24.9467 36.119 24.9467C36.119 24.9467 36.3759 24.8301 36.453 24.7044C36.5308 24.5784 38.9413 19.8883 39.1072 19.5734C39.2732 19.2584 39.158 19.1323 39.158 19.1323L38.1516 19.811Z" fill="url(#paint31_linear_0_638)"/>
<path d="M23.9891 17.2259V26.5995H28.2091C28.4536 26.5995 28.6678 26.5093 28.6678 26.2384V24.8405C28.6678 24.5701 28.8511 24.3602 29.0655 24.3602H35.4316C35.6551 24.3602 35.8557 24.2319 35.9721 24.0205C36.4923 23.0758 37.9249 20.3363 38.0333 20.1154C38.1656 19.8458 38.0837 19.6896 37.7771 19.6896H29.3407C28.9739 19.6896 28.6981 19.4195 28.6981 19.0889V17.5566C28.6981 17.3463 28.5759 17.2259 28.3006 17.2259H23.9891Z" fill="url(#paint32_linear_0_638)"/>
<path d="M9.20844 24.7544L10.0252 24.268C10.0252 24.268 9.93161 24.228 10.0786 23.9389C10.2258 23.6498 11.6048 20.8883 11.6048 20.8883L11.2971 20.8229L9.20844 24.7544Z" fill="url(#paint33_linear_0_638)"/>
<path d="M9.13453 24.3967C8.93013 24.7581 8.97129 24.8983 8.97129 24.8983L9.46154 24.5772C9.46154 24.5772 11.6477 20.4232 11.8725 19.9414C12.0973 19.4599 11.7623 19.2637 11.7623 19.2637C11.7623 19.2637 9.33892 24.0356 9.13453 24.3967Z" fill="url(#paint34_linear_0_638)"/>
<path d="M9.46536 25.0324C9.43291 25.0537 9.13411 25.0899 9.07577 25.0324C9.01722 24.9753 8.91954 24.9307 8.9976 24.8667C9.07577 24.8027 10.0368 24.2417 10.0368 24.2417C10.0368 24.2417 9.92008 24.3053 10.9075 24.3053H18.8061C19.014 24.3053 19.2088 24.4454 19.2349 24.5349C19.261 24.6244 19.2089 24.6625 19.144 24.6499C19.0793 24.637 18.9101 24.586 18.8712 24.522C18.8322 24.4583 18.9231 24.4073 18.3514 24.4073C17.7798 24.4073 13.4148 24.4713 12.4276 24.5604C11.4402 24.6499 10.1407 24.586 9.46536 25.0324Z" fill="white"/>
<path d="M38.6401 18.9586C38.6724 18.9377 38.9715 18.9015 39.0299 18.9586C39.0882 19.0161 39.1859 19.0607 39.1078 19.1247C39.0299 19.1883 38.0686 19.7498 38.0686 19.7498C38.0686 19.7498 38.1852 19.6861 37.198 19.6861H29.2991C29.0912 19.6861 28.8965 19.546 28.8706 19.4565C28.8445 19.3669 28.8963 19.3285 28.961 19.3415C29.0264 19.3544 29.1951 19.4055 29.2343 19.469C29.2732 19.5331 29.1821 19.5837 29.7539 19.5837C30.3257 19.5837 34.6902 19.5201 35.678 19.431C36.6651 19.3415 37.9647 19.4055 38.6401 18.9586Z" fill="white"/>
<path d="M12.0156 19.6967C12.0156 19.6064 12.0666 19.4359 12.0258 19.386C11.9849 19.3357 12.1075 19.2754 12.1893 19.3253C12.271 19.3757 12.4446 19.4157 12.465 19.456C12.4854 19.496 12.4548 19.5962 12.3425 19.6365C12.23 19.6765 12.1279 19.7668 11.9543 20.1378C11.7805 20.5095 10.7894 22.3958 10.7894 22.3958C10.7894 22.3958 10.9326 22.0949 10.8713 22.0846C10.81 22.0747 10.6671 22.3256 10.6671 22.3256L12.0156 19.6967Z" fill="white"/>
<path d="M18.8465 19.5194C18.762 19.5277 18.7383 19.4367 18.8105 19.4249C18.883 19.413 18.979 19.4074 19.0631 19.082C19.1477 18.7568 19.0875 17.7699 19.0753 17.5927C19.0631 17.4153 18.9791 17.2027 19.0996 17.1082C19.2198 17.0134 19.3041 17.2145 19.6171 17.2145C19.9299 17.2145 20.6401 17.1909 20.6401 17.1909C20.6401 17.1909 19.6412 17.2614 19.4724 17.2854C19.304 17.309 19.1595 17.4388 19.1835 17.6754C19.2078 17.9119 19.1477 19.1296 19.0996 19.2595C19.0513 19.3894 18.9669 19.5075 18.8465 19.5194Z" fill="white"/>
<path d="M25.5861 17.1981C25.4536 17.2042 28.1239 17.229 28.2922 17.229C28.4608 17.229 28.6533 17.2792 28.6896 17.4445C28.7256 17.6103 28.7001 18.1527 28.7001 18.1527C28.7001 18.1527 28.783 17.4564 28.9034 17.3265C29.0237 17.1962 28.9876 17.0073 28.8312 17.0423C28.6746 17.0781 27.4354 17.1163 25.5861 17.1981Z" fill="white"/>
<path d="M29.1521 24.445C29.0681 24.4329 28.972 24.4214 28.9477 24.4922C28.9236 24.5627 29.0556 24.61 28.9236 24.6804C28.7919 24.7512 28.6936 24.7947 28.6936 24.7357C28.6936 24.6766 28.7617 24.3738 29.014 24.3738C29.2661 24.3738 35.4903 24.362 35.5869 24.362C35.6826 24.362 35.8029 24.3738 35.8507 24.4683C35.8986 24.5627 35.9586 24.7985 35.9948 24.8694C36.0307 24.9402 35.9708 24.9402 35.8626 24.7985C35.7546 24.6568 35.4786 24.5982 35.2626 24.61C35.0464 24.6217 29.1521 24.445 29.1521 24.445Z" fill="white"/>
<path d="M36.0187 24.6454C36.0187 24.6454 35.9587 24.5159 35.9227 24.4329C35.8866 24.3506 35.7787 24.3156 35.7787 24.3156C35.7787 24.3156 35.8986 24.1735 36.0666 23.8672C36.2348 23.561 37.0272 22.0984 37.1112 21.8979C37.1112 21.8979 36.931 22.4408 37.2793 21.9924C37.2793 21.9924 36.1507 24.0909 36.0786 24.2325C36.0068 24.3742 36.0187 24.6454 36.0187 24.6454Z" fill="white"/>
<path d="M19.3219 26.2958C19.3219 26.2958 19.3362 26.4653 19.236 26.5358C19.1356 26.6063 19.0925 26.7331 19.1786 26.7895C19.2648 26.8459 19.3221 26.8177 19.3795 26.7331C19.4369 26.6486 19.638 26.5781 19.7671 26.6063C19.7671 26.6063 19.3219 26.6622 19.3219 26.2958Z" fill="white"/>
<path d="M25.5088 26.5979C25.5088 26.5979 27.9314 26.7232 28.0749 26.7297C28.218 26.7361 28.3188 26.7407 28.3188 26.7407C28.3188 26.7407 28.0617 26.7007 28.1378 26.6196L25.5088 26.5979Z" fill="white"/>
<path d="M28.3801 26.5781C28.3801 26.5781 28.3084 26.6908 28.4232 26.7468C28.5382 26.8032 28.6531 26.8596 28.7248 26.775C28.7964 26.6905 28.6675 26.4649 28.6817 26.3099C28.6817 26.3099 28.7391 26.5498 28.3801 26.5781Z" fill="white"/>
<path d="M31.3349 26.7823H31.2007V27.0055H31.3349C31.4032 27.0055 31.4234 26.9789 31.4234 26.935V26.8524C31.4234 26.796 31.3967 26.7823 31.3349 26.7823ZM31.3349 27.0778H31.2007V27.2615H31.119V26.7087H31.3349C31.4571 26.7087 31.5051 26.7621 31.5051 26.8524V26.935C31.5051 26.9949 31.484 27.0352 31.4234 27.0619L31.5749 27.2615H31.4782L31.3349 27.0778ZM31.3097 27.4299C31.5978 27.4299 31.7491 27.2359 31.7491 26.9978C31.7491 26.7598 31.5978 26.5629 31.3097 26.5629C31.0213 26.5629 30.8666 26.7598 30.8666 26.9978C30.8666 27.2359 31.0213 27.4299 31.3097 27.4299ZM31.3097 26.4898C31.629 26.4898 31.8239 26.7164 31.8239 26.9968C31.8239 27.2733 31.629 27.5033 31.3097 27.5033C30.9886 27.5033 30.7919 27.2733 30.7919 26.9968C30.7919 26.7164 30.9886 26.4898 31.3097 26.4898Z" fill="black"/>
<path d="M14.8879 30.1336H13.9965V29.0193H13.1363V31.7894H13.9965V30.595H14.8879V31.7894H15.749V29.0193H14.8879V30.1336Z" fill="black"/>
<path d="M30.7134 31.3283V29.0192H29.8529V31.7893H31.9448V31.3283H30.7134Z" fill="black"/>
<path d="M35.6053 29.0193V29.4813H36.3884V31.7894H37.2485V29.4813H38.0322V29.0193H35.6053Z" fill="black"/>
<path d="M10.0322 29.596C10.0322 29.2498 10.2452 29.0192 10.5645 29.0192H12.2901V29.4808H11.053C10.9568 29.4808 10.8936 29.5507 10.8936 29.6541V31.1544C10.8936 31.2586 10.9568 31.3283 11.053 31.3283H12.2901V31.7893H10.5645C10.2452 31.7893 10.0322 31.5582 10.0322 31.2124V29.596Z" fill="black"/>
<path d="M24.9993 30.6657L25.7431 31.7894H24.8284L24.1698 30.6468V30.2856H24.5253C24.6211 30.2856 24.6849 30.2155 24.6849 30.1123V29.6542C24.6849 29.5509 24.6211 29.4813 24.5253 29.4813H23.9234V31.7894H23.0624V29.0193H25.0134C25.3338 29.0193 25.5456 29.2499 25.5456 29.5961L25.5465 30.156C25.5465 30.461 25.359 30.6657 25.0764 30.6657H24.9993Z" fill="black"/>
<path d="M27.9823 31.3283C28.0775 31.3283 28.1417 31.2587 28.1417 31.1549V29.6541C28.1417 29.5509 28.0775 29.4808 27.9823 29.4808H27.3821C27.2865 29.4808 27.2222 29.5509 27.2222 29.6541V31.1549C27.2222 31.2587 27.2865 31.3283 27.3821 31.3283H27.9823ZM26.3617 29.596C26.3617 29.2498 26.5739 29.0192 26.8935 29.0192H28.4703C28.7895 29.0192 29.0029 29.2498 29.0029 29.596V31.2125C29.0029 31.5583 28.7895 31.7893 28.4703 31.7893H26.8935C26.5739 31.7893 26.3617 31.5583 26.3617 31.2125V29.596Z" fill="black"/>
<path d="M19.5782 29.0193H20.5012L21.052 31.1609C21.0561 31.1803 21.0702 31.1917 21.0902 31.1917C21.1097 31.1917 21.125 31.1803 21.1286 31.1609L21.6641 29.0193H22.3864L21.7192 31.3965C21.6384 31.6671 21.4925 31.7894 21.1861 31.7894H20.7566C20.5596 31.7894 20.3989 31.6896 20.3023 31.3945L19.5782 29.0193Z" fill="black"/>
<path d="M17.4795 31.2409C17.4795 31.2941 17.5113 31.3279 17.5597 31.3279H18.974V31.7894H17.1507C16.8315 31.7894 16.6188 31.5583 16.6188 31.2131V29.5961C16.6188 29.2499 16.8315 29.0193 17.1507 29.0193H18.974V29.4813H17.5597C17.5113 29.4813 17.4795 29.5157 17.4795 29.5678V30.1332H18.8117V30.5951H17.4795V31.2409Z" fill="black"/>
<path d="M33.4051 31.2409C33.4051 31.2941 33.4367 31.3279 33.4842 31.3279H34.8993V31.7894H33.0759C32.7567 31.7894 32.5428 31.5583 32.5428 31.2131V29.5961C32.5428 29.2499 32.7567 29.0193 33.0759 29.0193H34.8993V29.4813H33.4842C33.4367 29.4813 33.4051 29.5157 33.4051 29.5678V30.1332H34.7364V30.5951H33.4051V31.2409Z" fill="black"/>
</g>
<defs>
<linearGradient id="paint0_linear_0_638" x1="11.5016" y1="19.6629" x2="11.4891" y2="24.3738" gradientUnits="userSpaceOnUse">
<stop stop-color="#C7D6EE"/>
<stop offset="0.185394" stop-color="#91AFC8"/>
<stop offset="1" stop-color="#002334"/>
</linearGradient>
<linearGradient id="paint1_linear_0_638" x1="25.3928" y1="14.9314" x2="28.2867" y2="17.878" gradientUnits="userSpaceOnUse">
<stop stop-color="#E1E8F5"/>
<stop offset="0.89888" stop-color="#92A5C1"/>
<stop offset="0.955063" stop-color="#476886"/>
<stop offset="1" stop-color="#E1E8F5"/>
</linearGradient>
<linearGradient id="paint2_linear_0_638" x1="19.7846" y1="17.8614" x2="22.7452" y2="14.8472" gradientUnits="userSpaceOnUse">
<stop stop-color="#E1E8F5"/>
<stop offset="0.0393219" stop-color="#476886"/>
<stop offset="0.0898895" stop-color="#92A5C1"/>
<stop offset="1" stop-color="#E1E8F5"/>
</linearGradient>
<linearGradient id="paint3_linear_0_638" x1="17.8537" y1="17.9991" x2="18.8189" y2="17.0827" gradientUnits="userSpaceOnUse">
<stop stop-color="#E1E8F5"/>
<stop offset="0.157303" stop-color="#C7D6EE"/>
<stop offset="1" stop-color="#E1E8F5"/>
</linearGradient>
<linearGradient id="paint4_linear_0_638" x1="30.3447" y1="18.0352" x2="29.3227" y2="17.0649" gradientUnits="userSpaceOnUse">
<stop stop-color="#E1E8F5"/>
<stop offset="0.157303" stop-color="#C7D6EE"/>
<stop offset="1" stop-color="#E1E8F5"/>
</linearGradient>
<linearGradient id="paint5_linear_0_638" x1="13.2108" y1="20.4731" x2="16.5313" y2="17.0924" gradientUnits="userSpaceOnUse">
<stop stop-color="#476886"/>
<stop offset="0.129211" stop-color="#92A5C1"/>
<stop offset="1" stop-color="#E1E8F5"/>
</linearGradient>
<linearGradient id="paint6_linear_0_638" x1="8.97431" y1="25.1639" x2="8.58758" y2="24.6015" gradientUnits="userSpaceOnUse">
<stop stop-color="#002334"/>
<stop offset="0.106735" stop-color="white"/>
<stop offset="0.185394" stop-color="#91AFC8"/>
<stop offset="0.241577" stop-color="#002334"/>
<stop offset="0.533707" stop-color="#5E738F"/>
<stop offset="0.758423" stop-color="#002334"/>
<stop offset="1" stop-color="#002334"/>
</linearGradient>
<linearGradient id="paint7_linear_0_638" x1="11.8037" y1="21.2423" x2="8.77517" y2="22.8115" gradientUnits="userSpaceOnUse">
<stop stop-color="#91AFC8"/>
<stop offset="1" stop-color="#002334"/>
</linearGradient>
<linearGradient id="paint8_linear_0_638" x1="13.4641" y1="25.9673" x2="13.2382" y2="24.6629" gradientUnits="userSpaceOnUse">
<stop stop-color="#A5B9CC"/>
<stop offset="1" stop-color="#002334"/>
</linearGradient>
<linearGradient id="paint9_linear_0_638" x1="18.139" y1="26.5065" x2="18.5277" y2="26.5065" gradientUnits="userSpaceOnUse">
<stop stop-color="#5E738F"/>
<stop offset="0.48877" stop-color="#91AFC8"/>
<stop offset="1" stop-color="#91AFC8"/>
</linearGradient>
<linearGradient id="paint10_linear_0_638" x1="29.8482" y1="26.4615" x2="29.367" y2="26.4615" gradientUnits="userSpaceOnUse">
<stop stop-color="#5E738F"/>
<stop offset="0.320221" stop-color="#91AFC8"/>
<stop offset="1" stop-color="#91AFC8"/>
</linearGradient>
<linearGradient id="paint11_linear_0_638" x1="26.2322" y1="28.7103" x2="27.5135" y2="26.4508" gradientUnits="userSpaceOnUse">
<stop stop-color="#A5B9CC"/>
<stop offset="1" stop-color="#002334"/>
</linearGradient>
<linearGradient id="paint12_linear_0_638" x1="20.6846" y1="26.5945" x2="21.9758" y2="28.8716" gradientUnits="userSpaceOnUse">
<stop stop-color="#002334"/>
<stop offset="0.775284" stop-color="#A5B9CC"/>
<stop offset="1" stop-color="#A5B9CC"/>
</linearGradient>
<linearGradient id="paint13_linear_0_638" x1="15.4136" y1="18.0237" x2="21.1799" y2="28.1926" gradientUnits="userSpaceOnUse">
<stop stop-color="#FFEFCF"/>
<stop offset="0.460678" stop-color="#FFE4A6"/>
<stop offset="1" stop-color="#BC956E"/>
</linearGradient>
<linearGradient id="paint14_linear_0_638" x1="31.9155" y1="26.5861" x2="33.5443" y2="24.7375" gradientUnits="userSpaceOnUse">
<stop stop-color="#5E738F"/>
<stop offset="0.606735" stop-color="#91AFC8"/>
<stop offset="1" stop-color="#C7DFF4"/>
</linearGradient>
<linearGradient id="paint15_linear_0_638" x1="33.5757" y1="16.6718" x2="35.7231" y2="20.4586" gradientUnits="userSpaceOnUse">
<stop stop-color="#E1E8F5"/>
<stop offset="0.814606" stop-color="#7F97B4"/>
<stop offset="0.904495" stop-color="#476886"/>
<stop offset="1" stop-color="#002334"/>
</linearGradient>
<linearGradient id="paint16_linear_0_638" x1="36.1346" y1="25.2388" x2="39.6341" y2="19.0675" gradientUnits="userSpaceOnUse">
<stop stop-color="#8CA0B5"/>
<stop offset="0.140442" stop-color="#E1E8F5"/>
<stop offset="0.814606" stop-color="#7F97B4"/>
<stop offset="0.904495" stop-color="#476886"/>
<stop offset="1" stop-color="#002334"/>
</linearGradient>
<linearGradient id="paint17_linear_0_638" x1="34.8911" y1="25.3421" x2="36.1531" y2="24.6002" gradientUnits="userSpaceOnUse">
<stop stop-color="#002334"/>
<stop offset="0.814606" stop-color="#A5B9CC"/>
<stop offset="0.887634" stop-color="#002334"/>
<stop offset="1" stop-color="#002334"/>
</linearGradient>
<linearGradient id="paint18_linear_0_638" x1="11.9371" y1="22.6013" x2="16.0276" y2="26.7661" gradientUnits="userSpaceOnUse">
<stop stop-color="#D4BC7B"/>
<stop offset="0.331467" stop-color="#7F5F39"/>
<stop offset="1" stop-color="#D4BC7B"/>
</linearGradient>
<linearGradient id="paint19_linear_0_638" x1="34.0398" y1="23.184" x2="31.118" y2="26.1588" gradientUnits="userSpaceOnUse">
<stop stop-color="#D4BC7B"/>
<stop offset="0.331467" stop-color="#7F5F39"/>
<stop offset="1" stop-color="#D4BC7B"/>
</linearGradient>
<linearGradient id="paint20_linear_0_638" x1="36.5308" y1="16.8187" x2="31.8082" y2="21.627" gradientUnits="userSpaceOnUse">
<stop stop-color="#D4BC7B"/>
<stop offset="0.331467" stop-color="#7F5F39"/>
<stop offset="1" stop-color="#D4BC7B"/>
</linearGradient>
<linearGradient id="paint21_linear_0_638" x1="18.6475" y1="25.8719" x2="19.2757" y2="25.8719" gradientUnits="userSpaceOnUse">
<stop stop-color="#D3BD8B"/>
<stop offset="1" stop-color="#7F5F39"/>
</linearGradient>
<linearGradient id="paint22_linear_0_638" x1="29.3309" y1="25.8624" x2="28.7026" y2="25.8624" gradientUnits="userSpaceOnUse">
<stop stop-color="#D3BD8B"/>
<stop offset="1" stop-color="#7F5F39"/>
</linearGradient>
<linearGradient id="paint23_linear_0_638" x1="20.9636" y1="26.1282" x2="22.1" y2="28.1321" gradientUnits="userSpaceOnUse">
<stop stop-color="#7F5F39"/>
<stop offset="0.646072" stop-color="#D3BD8B"/>
<stop offset="0.887634" stop-color="#FFE4A6"/>
<stop offset="1" stop-color="#FFE4A6"/>
</linearGradient>
<linearGradient id="paint24_linear_0_638" x1="27.0235" y1="26.1381" x2="25.7821" y2="28.3273" gradientUnits="userSpaceOnUse">
<stop stop-color="#7F5F39"/>
<stop offset="0.455063" stop-color="#D3BD8B"/>
<stop offset="0.887634" stop-color="#FFE4A6"/>
<stop offset="1" stop-color="#FFE4A6"/>
</linearGradient>
<linearGradient id="paint25_linear_0_638" x1="20.1322" y1="18.145" x2="22.7798" y2="15.4492" gradientUnits="userSpaceOnUse">
<stop stop-color="#D4BC7B"/>
<stop offset="0.0393219" stop-color="#7F5F39"/>
<stop offset="0.106735" stop-color="#D1AC75"/>
<stop offset="1" stop-color="#D4BC7B"/>
</linearGradient>
<linearGradient id="paint26_linear_0_638" x1="27.8854" y1="18.199" x2="25.1914" y2="15.4562" gradientUnits="userSpaceOnUse">
<stop stop-color="#D4BC7B"/>
<stop offset="0.0393219" stop-color="#7F5F39"/>
<stop offset="0.106735" stop-color="#D1AC75"/>
<stop offset="1" stop-color="#D4BC7B"/>
</linearGradient>
<linearGradient id="paint27_linear_0_638" x1="18.3467" y1="18.5844" x2="19.3324" y2="17.6485" gradientUnits="userSpaceOnUse">
<stop stop-color="#FFE292"/>
<stop offset="0.157303" stop-color="#D1AC75"/>
<stop offset="1" stop-color="#FFE292"/>
</linearGradient>
<linearGradient id="paint28_linear_0_638" x1="29.6929" y1="18.5714" x2="28.6652" y2="17.5957" gradientUnits="userSpaceOnUse">
<stop stop-color="#FFE292"/>
<stop offset="0.157303" stop-color="#D1AC75"/>
<stop offset="1" stop-color="#FFE292"/>
</linearGradient>
<linearGradient id="paint29_linear_0_638" x1="13.8077" y1="20.9307" x2="16.8833" y2="17.7993" gradientUnits="userSpaceOnUse">
<stop stop-color="#7F5F39"/>
<stop offset="1" stop-color="#BD9B6A"/>
</linearGradient>
<linearGradient id="paint30_linear_0_638" x1="36.3989" y1="21.4988" x2="37.7074" y2="22.8311" gradientUnits="userSpaceOnUse">
<stop stop-color="#7F5F39"/>
<stop offset="1" stop-color="#D4BC7B"/>
</linearGradient>
<linearGradient id="paint31_linear_0_638" x1="35.9565" y1="24.8049" x2="38.8143" y2="19.2004" gradientUnits="userSpaceOnUse">
<stop stop-color="#A78A5E"/>
<stop offset="0.764038" stop-color="#7F5F39"/>
<stop offset="0.915726" stop-color="#674C2B"/>
<stop offset="1" stop-color="#674C2B"/>
</linearGradient>
<linearGradient id="paint32_linear_0_638" x1="33.4838" y1="26.0712" x2="25.3022" y2="16.1438" gradientUnits="userSpaceOnUse">
<stop stop-color="#FFEFCF"/>
<stop offset="0.460678" stop-color="#FFE4A6"/>
<stop offset="1" stop-color="#BC956E"/>
</linearGradient>
<linearGradient id="paint33_linear_0_638" x1="8.88028" y1="24.2945" x2="11.7173" y2="21.406" gradientUnits="userSpaceOnUse">
<stop stop-color="#7F5F39"/>
<stop offset="1" stop-color="#E9CF98"/>
</linearGradient>
<linearGradient id="paint34_linear_0_638" x1="8.36974" y1="24.1226" x2="12.1902" y2="20.2327" gradientUnits="userSpaceOnUse">
<stop stop-color="#7F5F39"/>
<stop offset="1" stop-color="#E4CB90"/>
</linearGradient>
<clipPath id="clip0_0_638">
<rect width="32" height="16" fill="white" transform="translate(8 16)"/>
</clipPath>
</defs>
</svg>
