<svg width="48" height="48" viewBox="0 0 48 48" fill="none" xmlns="http://www.w3.org/2000/svg">
<path d="M9.62981 33.4487C8.88956 33.3344 8.44064 33.0619 8.25923 32.5571L8.16272 32.2885L8.0163 30.9308V29.5331L8.67303 29.5229C9.25753 29.5138 9.33495 29.5197 9.37686 29.5766C9.41235 29.6248 9.42396 29.9392 9.42396 30.8516C9.42396 31.9964 9.42817 32.0713 9.50092 32.2205C9.54325 32.3073 9.63617 32.4225 9.7074 32.4765C9.98277 32.685 9.9576 32.6826 11.8158 32.6824H13.5343L13.6781 32.4043C13.7591 32.2477 13.9271 32.0134 14.0629 31.8678C14.1954 31.7257 14.3039 31.5998 14.3039 31.5882C14.3039 31.5765 14.1138 31.5623 13.8816 31.5565L13.4593 31.5459L13.4679 31.4029C13.488 31.0702 13.9289 30.4362 14.3797 30.0918C14.504 29.9968 14.7279 29.863 14.8771 29.7946C15.3998 29.5548 15.4479 29.5518 18.7281 29.5529L21.68 29.554L22.5723 30.2052C23.063 30.5634 23.4826 30.8564 23.5047 30.8564C23.5547 30.8564 24.9153 30.0202 25.3206 29.7403L25.6204 29.5333L26.7654 29.5365C27.9351 29.5398 27.9073 29.5389 27.9578 29.5658C28.0313 29.6048 28.0051 29.6272 28.0051 30.8776C28.0051 31.9503 28.0147 32.186 28.0628 32.3005C28.1377 32.4784 28.215 32.5607 28.3992 32.6587C28.5437 32.7356 28.6021 32.7391 29.9351 32.7504C30.6972 32.757 31.36 32.7525 31.408 32.7405L31.4953 32.7188L31.5051 31.1633L31.5149 29.6078H32.2093H32.9038L32.9225 31.1546L32.9413 32.7014L35.4603 32.7109L37.9793 32.7205L38.0831 32.6395C38.1402 32.5949 38.2104 32.5025 38.2392 32.4342C38.2838 32.3281 38.2838 32.2919 38.2392 32.1858C38.2104 32.1175 38.1404 32.0253 38.0835 31.9808L37.98 31.9H35.6811C33.684 31.9 33.3761 31.8927 33.3355 31.8441C33.2754 31.7723 33.3375 31.3261 33.4486 31.0314C33.5344 30.8035 33.7471 30.4608 33.9334 30.2501C34.1162 30.0434 34.5623 29.7633 34.8576 29.6698C35.1162 29.588 35.1378 29.5874 37.2769 29.5975L39.4353 29.6078L39.4463 29.9401C39.4542 30.1808 39.4439 30.2808 39.4087 30.3029C39.3821 30.3197 38.5192 30.3337 37.4913 30.3341C35.7159 30.3347 35.6151 30.3382 35.4794 30.407C35.2359 30.5303 34.9494 30.9287 35.0035 31.0688C35.0186 31.1077 35.3815 31.1173 36.8422 31.1173C38.0467 31.1173 38.7294 31.1315 38.861 31.1592C39.1552 31.2212 39.3847 31.3507 39.5775 31.5636C39.8 31.8094 39.8796 32.0434 39.8605 32.3967C39.8297 32.969 39.453 33.3662 38.8486 33.4636C38.5068 33.5187 28.1689 33.517 27.8106 33.4618C27.1881 33.3659 26.8708 33.1808 26.6841 32.8045L26.5599 32.5541L26.5411 31.2704C26.5289 30.4338 26.5088 29.9822 26.4835 29.9738C26.3936 29.9442 24.2513 31.3085 24.2513 31.3954L26.9213 33.5495C26.9213 33.5714 26.4534 33.4654 25.8407 33.4654H24.84L23.9489 32.8318C23.4587 32.4833 23.0341 32.1982 23.0053 32.1982C22.9539 32.1982 21.4593 33.0982 21.0663 33.3659L20.8654 33.5027L15.3981 33.499C11.2345 33.4962 9.85896 33.4842 9.62981 33.4488V33.4487ZM20.3177 32.8664C20.4476 32.7831 20.9255 32.4845 21.3797 32.203C21.8339 31.9215 22.2055 31.6718 22.2055 31.6483C22.2055 31.6092 20.3018 30.1373 19.9861 29.8586C19.8718 29.7577 19.7321 30.0419 19.7983 30.1521L19.641 30.3291L17.9075 30.3345C16.0165 30.3403 15.971 30.3549 15.8241 30.4336C15.6029 30.5521 15.102 30.9987 15.102 31.1361C15.102 31.1988 15.5051 31.1758 17.4313 31.1763C18.5513 31.177 19.5027 31.1741 19.5027 31.1741C19.4961 31.2074 19.5003 31.5808 19.5003 31.5808L19.5028 31.844L17.7761 31.8626C15.9142 31.8827 16.0067 31.8723 15.7229 32.0932C15.5686 32.2132 15.2402 32.6573 15.2969 32.7136L19.9532 32.7012L19.9648 33.0726C19.9732 33.3437 20.016 33.0601 20.3177 32.8665L20.3177 32.8664Z" fill="url(#paint0_linear_0_1123)"/>
<path d="M8.0296 29.5073V29.8602H9.50299V29.5073H8.0296ZM31.3044 29.5283V29.8824H32.9187V29.5283H31.3044ZM25.6275 29.5295L25.4959 29.6215H26.0224C26.1961 29.6172 26.3153 29.6268 26.4032 29.6424L26.4021 29.8882H27.95V29.5306L27.2698 29.5399C26.6395 29.5354 26.1935 29.5323 25.6275 29.5295H25.6275ZM19.3636 29.5504C19.0502 29.5511 18.6872 29.5524 18.2688 29.5539C15.6785 29.5632 15.4692 29.568 15.3837 29.6285C15.3837 29.655 15.2651 29.704 15.5608 29.6832C15.6046 29.6802 15.6243 29.688 15.6877 29.6809C16.099 29.6875 16.7588 29.6739 18.1872 29.6739C19.7907 29.6739 21.1226 29.6811 21.1224 29.6657C21.1214 29.6162 21.2094 29.5872 21.0129 29.5702C20.7985 29.5518 20.3038 29.5485 19.3636 29.5504V29.5504ZM38.0517 29.5807C37.807 29.5814 37.5236 29.5827 37.1968 29.5842C35.174 29.5935 35.0098 29.5994 34.943 29.6599C34.943 29.6864 34.8508 29.7343 35.0816 29.7135C35.1159 29.7105 35.1311 29.7195 35.1807 29.7123C35.5018 29.7189 36.0173 29.7054 37.1327 29.7054C38.385 29.7054 39.4252 29.7126 39.4249 29.6972C39.4242 29.6476 39.4922 29.6186 39.3387 29.6017C39.1713 29.5832 38.7859 29.5788 38.0517 29.5807V29.5807Z" fill="url(#paint1_linear_0_1123)"/>
<path d="M34.589 31.146C34.4949 30.9935 34.815 30.5645 35.1712 30.3667C35.5744 30.1428 35.7327 30.1275 37.6567 30.127L39.4544 30.1483L39.4823 30.4405C39.3885 30.4451 39.0325 30.4463 37.6201 30.4478C35.5455 30.4499 35.5224 30.4522 35.237 30.6872C35.1453 30.7626 35.051 30.8791 35.023 30.9515C35.0037 31.0013 35.0046 31.0433 34.9721 31.0741C34.8891 31.1166 34.7917 31.1558 34.715 31.176C34.6804 31.185 34.6452 31.2093 34.6242 31.1985C34.6096 31.1911 34.6184 31.191 34.6053 31.1732L34.589 31.146Z" fill="url(#paint2_linear_0_1123)"/>
<path d="M14.5809 31.4157C14.5803 31.376 14.6083 31.2617 14.6462 31.1486C14.744 30.857 14.9894 30.5767 15.3121 30.3881C15.7 30.1613 15.8059 30.1517 17.9298 30.1496C19.1065 30.1484 19.7934 30.1496 19.7934 30.1496C19.7934 30.1496 19.7934 30.245 19.7934 30.3178C19.7934 30.3835 19.7934 30.4946 19.7934 30.4946C19.702 30.4835 19.0598 30.4971 17.9458 30.4971C16.0001 30.4971 15.9074 30.491 15.6309 30.6607C15.5627 30.7025 15.4392 30.8102 15.3636 30.8965C15.2631 31.0113 15.1639 31.1143 15.1141 31.2301C15.0241 31.31 14.9088 31.3122 14.823 31.3517C14.6488 31.432 14.5754 31.4476 14.5754 31.4476L14.5809 31.4157Z" fill="url(#paint3_linear_0_1123)"/>
<path d="M38.1866 32.4775C38.2392 32.2679 37.975 31.9901 37.6781 31.9231C37.6049 31.9066 36.6407 31.9019 35.5355 31.9126C34.4302 31.9233 33.4664 31.9077 33.3907 31.9067C33.3113 31.9056 33.2801 31.9124 33.2651 31.8948C33.2356 31.8604 33.3054 31.7767 33.4432 31.6713L33.6016 31.5502L35.5461 31.5522C37.6944 31.5544 38.0003 31.5712 38.1763 31.6965C38.4762 31.91 38.5976 32.2568 38.4418 32.4542C38.3395 32.5838 38.0541 32.7626 37.9904 32.7232C38.1489 32.5935 38.1397 32.5992 38.1866 32.4775Z" fill="url(#paint4_linear_0_1123)"/>
<path d="M31.4677 32.8014C31.4065 32.7667 31.3158 32.7693 31.3025 32.7346C31.2892 32.6999 31.2849 31.9381 31.2849 31.0987C31.2849 30.0268 31.2823 29.6915 31.2728 29.5184C31.3254 29.5157 31.4497 29.5729 31.5554 29.6787L31.726 29.8869L31.7148 32.7309C31.7144 32.7895 31.7211 32.8494 31.7133 32.9082C31.6062 32.8619 31.5413 32.8335 31.4677 32.8014H31.4677Z" fill="url(#paint5_linear_0_1123)"/>
<path d="M14.7454 32.8803C14.7454 32.8803 14.7252 32.6734 14.8017 32.4695C14.8833 32.2518 15.1874 31.9402 15.4253 31.8307C15.7918 31.6619 15.8715 31.6557 17.6875 31.6553C18.9471 31.6547 19.4963 31.6647 19.4963 31.6647L19.5087 31.9974C19.5087 31.9974 18.8334 31.9986 17.7759 31.9987C16.7599 31.9987 16.0812 32.0124 15.9953 32.0344C15.7244 32.1038 15.4356 32.3843 15.3277 32.6828C15.3099 32.7319 14.8099 32.8754 14.7689 32.8932L14.7454 32.8803Z" fill="url(#paint6_linear_0_1123)"/>
<path d="M27.9864 33.52C27.6763 33.4803 27.1459 33.2991 26.957 33.1683C26.818 33.0721 26.6366 32.866 26.5535 32.7099C26.448 32.5117 26.405 32.0535 26.4037 31.1144C26.403 30.598 26.4069 30.1573 26.3894 30.1464C26.3719 30.1356 25.9527 30.3769 25.4809 30.671C24.598 31.2215 24.3447 31.3911 24.1733 31.47L23.4833 31.4734C23.5726 31.39 26.186 29.7282 26.3238 29.6707C26.4184 29.6311 26.3566 29.6209 26.4018 29.6468C26.4685 29.685 26.6887 29.7671 26.7153 29.8292C26.7625 29.9394 26.7258 30.1657 26.7397 30.9431C26.7642 32.3086 26.7792 32.3832 27.0912 32.6879C27.2222 32.8157 27.3749 32.9172 27.5444 32.9888C27.5444 32.9888 27.7262 33.0435 27.8189 33.064C27.8842 33.0784 28.0167 33.0973 28.0167 33.0973L33.164 33.1068L38.4414 33.1101C38.4414 33.1101 38.5658 33.0904 38.6251 33.07C38.6704 33.0544 38.7115 33.0284 38.7547 33.0077C39.435 32.6804 39.6712 32.237 39.4266 31.7462C39.3742 31.641 39.2641 31.4942 39.1819 31.42C39.0998 31.3458 38.9779 31.2296 38.9844 31.2106C39.0021 31.1586 39.4138 31.3754 39.5368 31.4982C39.8442 31.8051 39.9744 32.4218 39.7732 32.833C39.5665 33.2555 39.1479 33.4753 38.5602 33.5278C38.084 33.5704 28.3236 33.5631 27.9864 33.5199V33.52Z" fill="url(#paint7_linear_0_1123)"/>
<path d="M9.61163 33.5071C9.21417 33.4505 9.03229 33.3881 8.76345 33.2161C8.50368 33.0499 8.30684 32.8197 8.16771 32.5192C8.14305 32.4659 8.11456 32.4142 8.09507 32.3588C8.07846 32.3117 8.06636 32.2628 8.05768 32.2136C8.04047 32.1159 8.03436 32.0165 8.02891 31.9175C8.01191 31.609 8.01667 30.9905 8.01667 30.9905L8.00341 29.6022C8.00302 29.5608 8 29.5024 8 29.5024C8 29.5024 8.1513 29.5795 8.2598 29.673L8.46037 29.8458L8.46162 30.8107C8.46302 31.8843 8.48295 32.0086 8.64953 32.362C8.74973 32.5746 8.96856 32.7636 9.32185 32.9426C9.73732 33.1531 9.7278 33.1528 14.9599 33.1528H19.7579L19.9988 32.9757C20.1313 32.8784 20.645 32.5471 21.1404 32.2396C21.6358 31.9321 22.0413 31.6627 22.0414 31.6409C22.0419 31.5617 21.8155 31.39 20.1313 30.1922C19.8068 29.9615 19.557 29.7948 19.4307 29.6797C19.5513 29.6826 19.8271 29.6866 19.9999 29.6867L20.2712 29.6869L21.0912 30.2708C21.5422 30.592 22.0789 30.9746 22.2839 31.121C22.4888 31.2675 22.7697 31.4835 22.7428 31.5008L21.7062 32.166C21.3908 32.3684 21.0446 32.5815 20.9421 32.6477C20.8396 32.7139 20.6342 32.8464 20.4856 32.9421C20.3369 33.0378 20.2054 33.1561 20.2054 33.1764C20.2353 33.1946 20.3441 33.1899 20.5228 33.1897L20.8303 33.1891L21.8827 32.5026C22.4616 32.125 22.9683 31.8056 23.0088 31.7927C23.1112 31.7602 23.1445 31.7807 24.1288 32.4813C24.6106 32.8241 25.0571 33.1641 25.0981 33.1849C25.1391 33.2057 25.3551 33.1898 25.6011 33.2015C25.7794 33.2099 25.8758 33.1987 25.9956 33.219C26.6333 33.4517 26.0714 33.2489 26.9068 33.5553L24.742 33.5575C24.6272 33.4974 23.5654 32.732 23.2731 32.4946C23.139 32.3858 23.0057 32.2964 22.9768 32.296C22.9479 32.2954 22.7718 32.3998 22.5854 32.5275C22.3991 32.6551 21.9794 32.9403 21.6528 33.1611L21.0589 33.5625L15.503 33.5585C11.2015 33.5555 9.87133 33.5438 9.61163 33.5068V33.5071Z" fill="url(#paint8_linear_0_1123)"/>
<path d="M28.1144 32.6669C27.8743 32.6022 27.7078 32.4799 27.6397 32.3875C27.5956 32.3276 27.5934 32.3397 27.5823 32.3061C27.5718 32.2746 27.5471 32.2203 27.5422 32.1875C27.4921 31.8546 27.4959 31.0655 27.4959 31.0655V29.9176L27.704 29.7323C27.8184 29.6304 27.9186 29.5404 27.9267 29.5323C27.9348 29.5243 27.9481 29.5295 27.9793 29.5555C28.0283 29.5961 28.0079 29.8146 28.008 30.9587C28.008 32.4699 28.1285 32.509 28.4493 32.697C28.5885 32.7337 28.3081 32.7226 28.1144 32.6669ZM9.48542 32.5888C9.28025 32.5391 9.1038 32.3631 9.06744 32.2616L9.02034 32.1302C8.98941 31.3722 8.96802 30.6265 8.96802 29.8463L9.11564 29.6989C9.28089 29.5338 9.48939 29.5032 9.48939 29.5032C9.50317 29.5318 9.49897 30.1518 9.5044 30.8779C9.51622 32.4587 9.49318 32.3425 9.83221 32.5303C9.92844 32.5836 10.1162 32.6349 10.1055 32.6525C10.0827 32.69 9.64875 32.6284 9.48542 32.5888ZM32.4157 31.3771V29.8715L32.5467 29.7565C32.6896 29.6311 32.8969 29.5125 32.9247 29.5403C32.948 29.5636 32.9539 32.6452 32.9304 32.7064C32.9203 32.7325 32.8172 32.783 32.7175 32.8184C32.5846 32.8655 32.431 32.9076 32.4338 32.8926C32.4137 32.9085 32.4157 32.3911 32.4157 31.3771H32.4157Z" fill="url(#paint9_linear_0_1123)"/>
<path d="M33.2527 31.8981C33.2539 31.7071 33.3699 31.1284 33.5299 30.801C33.7322 30.3867 34.0931 29.9889 34.424 29.8151C34.5508 29.7485 34.6744 29.6938 34.6987 29.6937C34.8333 29.6533 35.0408 29.6163 35.2184 29.6017C35.0868 29.6606 34.9766 29.6947 34.8252 29.7833C34.6194 29.8958 34.4361 29.9948 34.1521 30.3421C34.0508 30.466 33.9748 30.5722 33.8989 30.7854C33.7974 31.07 33.7695 31.3617 33.741 31.5453C33.6424 31.5991 33.6494 31.6241 33.2527 31.8981ZM13.3476 31.531C13.3476 31.3972 13.5258 30.984 13.7368 30.6291C13.9804 30.2192 14.2036 30.021 14.6167 29.8476C14.9213 29.7198 15.4738 29.5903 15.616 29.5942C15.7018 29.5965 15.3797 29.7051 15.1989 29.7723C14.8812 29.8904 14.6925 30.0322 14.4162 30.3105C14.2451 30.4828 14.0739 30.7043 13.8289 31.3164L13.7523 31.5575L13.5333 31.5542C13.3769 31.5519 13.3742 31.5471 13.3476 31.531V31.531ZM20.8922 29.5532L21.6776 29.5522C22.7243 30.3249 23.3148 30.7253 23.5019 30.8601L23.0536 31.1373C22.0509 30.4174 21.7635 30.1801 20.8922 29.5532V29.5532Z" fill="url(#paint10_linear_0_1123)"/>
<path d="M24.2065 31.9936L23.4993 31.4684H23.8618C24.0611 31.4684 24.2438 31.3885 24.2732 31.4143C24.2732 31.4143 24.8587 31.8903 26.9181 33.5394C25.5901 33.1988 25.2078 32.7373 24.2065 31.9936Z" fill="url(#paint11_linear_0_1123)"/>
<path d="M13.5905 32.7184C13.5284 32.6748 13.5312 32.6572 13.6375 32.4202C13.7658 32.1342 14.2265 31.6222 14.4133 31.4969C14.4854 31.4486 14.5976 31.3755 14.7001 31.3377C14.8026 31.2999 14.8996 31.2535 14.9866 31.2198C15.0389 31.1996 15.143 31.1717 15.3327 31.1734L15.6319 31.1762L15.4456 31.2426C15.0929 31.3683 14.8493 31.5171 14.5938 31.7629C14.3013 32.0443 14.1247 32.3011 13.9867 32.6459C13.9338 32.7779 13.8892 32.8831 13.876 32.8913C13.7667 32.8888 13.6837 32.7826 13.5905 32.7184V32.7184Z" fill="url(#paint12_linear_0_1123)"/>
<path d="M22.5161 27.5134C21.1676 27.3719 19.9057 27.0114 18.666 26.4134C17.6326 25.915 16.9761 25.4552 16.2755 24.7392C15.4898 23.9363 15.1066 23.3491 14.7474 22.3977C14.3181 21.2605 14.4672 19.7393 15.138 18.4139C15.7028 17.2978 16.4115 16.5156 17.5236 15.7811C17.9372 15.508 18.9624 14.9821 19.2319 14.9048C19.4219 14.8504 19.1377 14.957 18.8128 15.1449C18.6124 15.256 18.4887 15.3245 18.3038 15.4342C17.8742 15.696 17.7628 15.7887 17.3173 16.1479C16.0999 17.1293 15.344 18.2934 15.0727 19.6044C14.984 20.0328 14.984 20.9929 15.0727 21.4213C15.3943 22.9756 16.3288 24.2491 17.9227 25.305C18.8395 25.9124 19.9022 26.3597 21.1411 26.6595C22.1882 26.9129 22.5832 26.9536 23.997 26.9536C25.0274 26.9536 25.3618 26.9389 25.774 26.8757C27.0905 26.6736 28.4937 26.2182 29.4337 25.688C30.2028 25.2542 30.4585 25.1031 30.5279 25.0412C30.5675 25.0059 30.745 24.9118 30.9223 24.8322C31.1347 24.7368 31.2858 24.6367 31.3652 24.5386C31.4835 24.3926 31.4915 24.3898 31.7925 24.3898C31.9727 24.3898 32.2491 24.129 32.2491 24.154C31.8975 24.6557 31.3161 25.2137 30.986 25.4676C30.4958 25.8458 30.1108 26.1043 29.4126 26.4365C28.238 26.9952 27.2764 27.3215 25.7951 27.4995C24.7094 27.6301 23.5541 27.6225 22.5161 27.5134Z" fill="url(#paint13_linear_0_1123)"/>
<path d="M22.4223 26.8472C21.6434 26.7643 20.5008 26.5163 19.8975 26.2991C19.4704 26.1455 18.5662 25.7503 18.3319 25.6149C18.072 25.4647 17.4393 24.9941 17.0705 24.6767C16.5923 24.2651 15.8256 23.2988 15.892 23.1914C15.911 23.1607 16.2543 23.0328 16.3173 23.0328C16.3287 23.0328 16.3921 23.1274 16.4674 23.2614C16.8097 23.8707 17.3194 24.4176 17.8868 24.8803C18.6462 25.4994 19.1937 25.7731 20.3029 26.0882C22.5907 26.738 25.2526 26.7079 27.3817 26.008C28.2131 25.7347 29.0545 25.2781 29.3709 24.9284C29.4567 24.8336 30.1374 24.5936 30.1851 24.6414C30.2453 24.7015 30.0853 24.9052 29.7554 25.1887C29.1674 25.6938 27.705 26.3238 26.5339 26.5766C25.4803 26.8039 25.1089 26.8419 23.8211 26.8538C23.145 26.8601 22.5156 26.8571 22.4223 26.8472Z" fill="url(#paint14_linear_0_1123)"/>
<path d="M18.28 25.4049C17.9371 25.2959 17.7481 25.188 17.3263 24.8605C16.3992 24.1408 15.729 23.2295 15.4331 22.2863C15.2584 21.7292 15.2186 21.3643 15.2447 20.5573C15.2648 19.9381 15.2852 19.7706 15.38 19.4487C15.616 18.6468 15.9434 18.0369 16.4907 17.3796C17.7309 15.8902 20.0476 14.7665 22.4059 14.5105C23.0588 14.4397 24.2789 14.4335 24.4667 14.5002C24.6596 14.5687 24.8614 14.792 24.9263 15.0089C24.9692 15.1522 24.9636 15.1945 24.88 15.3586C24.8277 15.4613 24.7305 15.6123 24.6639 15.6943C24.5974 15.7763 24.4239 16.0008 24.2784 16.1931C24.1329 16.3854 23.7932 16.8146 23.5234 17.1468C23.2537 17.479 22.8144 18.056 22.5472 18.429C22.0527 19.1195 20.9701 20.7575 20.754 21.1419C20.6885 21.2584 20.5719 21.4418 20.4949 21.5493C20.4179 21.6568 20.2859 21.8904 20.2015 22.0684C20.0602 22.3664 20.0493 22.4167 20.0637 22.7033C20.0834 23.0933 20.205 23.2961 20.5541 23.5213C21.0795 23.8601 20.602 23.8335 26.1466 23.8335H31.0924L31.5211 23.3714C31.8523 23.0145 31.9829 22.8375 32.0954 22.5936C32.2599 22.2371 32.4299 21.6804 32.5033 21.2579C32.5657 20.8994 32.5268 19.9389 32.4401 19.6936C32.2768 19.0297 31.9879 18.3808 31.6315 17.8144C30.9525 16.7539 29.9851 15.9117 28.5867 15.1637C28.3385 15.0309 27.7045 14.7249 27.7143 14.7151C27.7447 14.6846 28.6888 15.079 29.1544 15.3109C30.3045 15.8839 31.2933 16.7041 31.9501 17.6298C32.4369 18.3159 32.8407 19.0966 33.0398 19.8835C33.1506 20.3214 33.1642 20.7024 33.1629 21.1794C33.1602 22.1313 32.9616 22.7564 32.496 23.6644C32.1694 24.3013 32.0947 24.3829 31.6 24.6432L31.0518 24.8417L26.172 24.872C21.1914 24.9029 21.1775 24.8717 20.6921 24.7781C19.6534 24.5776 19.2278 24.3301 18.9565 23.7687C18.8219 23.4901 18.7918 22.9492 18.8893 22.5602C19.1124 21.6701 20.6431 19.2985 22.7845 16.5251C23.1922 15.997 23.5452 15.5287 23.5689 15.4844C23.6817 15.2732 23.5688 15.1335 23.247 15.0858C23.0226 15.0526 21.8783 15.2307 21.383 15.3759C20.1723 15.7311 19.7052 15.9119 19.1007 16.2595C18.191 16.7827 17.4449 17.4253 16.9271 18.1317C16.3748 18.8851 16.1552 19.359 15.9464 20.2483C15.8229 20.7741 15.8515 21.5951 16.0137 22.1789C16.3517 23.3957 17.0693 24.3414 18.3118 25.2078C18.5038 25.3417 18.6609 25.4592 18.6609 25.4689C18.6609 25.5033 18.5098 25.4779 18.28 25.4049Z" fill="url(#paint15_linear_0_1123)"/>
<path d="M18.3043 25.4136C17.9614 25.3046 17.7724 25.1967 17.3506 24.8692C16.4235 24.1494 15.7533 23.2382 15.4574 22.295C15.2826 21.7379 15.2429 21.373 15.269 20.566C15.2891 19.9467 15.3095 19.7792 15.4043 19.4574C15.6403 18.6554 15.9677 18.0456 16.515 17.3883C17.7552 15.8988 20.0719 14.7752 22.4302 14.5192C23.0831 14.4483 24.3032 14.4422 24.491 14.5088C24.6839 14.5773 24.8857 14.8007 24.9506 15.0176C24.9935 15.1609 24.9879 15.2032 24.9043 15.3673C24.852 15.4699 24.7548 15.621 24.6882 15.703C24.6217 15.785 24.4482 16.0094 24.3027 16.2018C24.1572 16.3941 23.8175 16.8233 23.5477 17.1555C23.2779 17.4877 22.8387 18.0647 22.5715 18.4377C22.077 19.1282 20.9944 20.7661 20.7783 21.1505C20.7128 21.2671 20.5962 21.4504 20.5192 21.5579C20.4422 21.6655 20.3102 21.8991 20.2258 22.0771C20.0845 22.375 20.0736 22.4254 20.088 22.712C20.1077 23.102 20.2293 23.3048 20.5784 23.5299C21.1038 23.8688 20.6263 23.8421 26.1709 23.8421H31.1167L31.5454 23.3801C31.8766 23.0232 32.0072 22.8462 32.1197 22.6023C32.2842 22.2458 32.4542 21.6891 32.5276 21.2666C32.59 20.908 32.5511 19.9476 32.4643 19.7023C32.3011 19.0384 31.9468 18.4476 31.5905 17.8813C30.9114 16.8207 30.0093 16.1291 28.611 15.3811C28.3628 15.2483 27.1345 14.5891 27.7386 14.7237C27.769 14.6933 28.7131 15.0877 29.1787 15.3196C30.3288 15.8926 31.3176 16.7128 31.9744 17.6384C32.4612 18.3245 32.865 19.1053 33.0641 19.8922C33.1749 20.33 33.1885 20.7111 33.1872 21.188C33.1845 22.14 32.9859 22.7651 32.5203 23.673C32.1937 24.31 32.119 24.3915 31.6243 24.6519L31.0761 24.8504L26.1963 24.8806C21.2157 24.9116 21.2018 24.8804 20.7164 24.7867C19.6776 24.5863 19.2521 24.3388 18.9808 23.7773C18.8462 23.4988 18.8161 22.9579 18.9136 22.5689C19.1367 21.6788 20.6674 19.3072 22.8088 16.5338C23.2165 16.0057 23.5695 15.5373 23.5932 15.4931C23.706 15.2819 23.5931 15.1421 23.2713 15.0945C23.0469 15.0612 21.9026 15.2393 21.4073 15.3846C20.1966 15.7397 19.7295 15.9206 19.125 16.2682C18.2153 16.7914 17.4692 17.434 16.9514 18.1404C16.3991 18.8937 16.1795 19.3677 15.9707 20.2569C15.8472 20.7827 15.8758 21.6038 16.038 22.1875C16.376 23.4043 17.0936 24.3501 18.3361 25.2165C18.5281 25.3504 18.6852 25.4679 18.6852 25.4776C18.6852 25.512 18.5341 25.4866 18.3043 25.4136Z" fill="url(#paint16_linear_0_1123)"/>
<path d="M18.3043 25.4136C17.9614 25.3046 17.7724 25.1967 17.3506 24.8692C16.4235 24.1494 15.7533 23.2382 15.4574 22.295C15.2826 21.7379 15.2429 21.373 15.269 20.566C15.2891 19.9467 15.3095 19.7792 15.4043 19.4574C15.6403 18.6554 15.9677 18.0456 16.515 17.3883C17.7552 15.8988 20.0719 14.7752 22.4302 14.5192C23.0831 14.4483 24.3032 14.4422 24.491 14.5088C24.6839 14.5773 24.8857 14.8007 24.9506 15.0176C24.9935 15.1609 24.9879 15.2032 24.9043 15.3673C24.852 15.4699 24.7548 15.621 24.6882 15.703C24.6217 15.785 24.4482 16.0094 24.3027 16.2018C24.1572 16.3941 23.8175 16.8233 23.5477 17.1555C23.2779 17.4877 22.8387 18.0647 22.5715 18.4377C22.077 19.1282 20.9944 20.7661 20.7783 21.1505C20.7128 21.2671 20.5962 21.4504 20.5192 21.5579C20.4422 21.6655 20.3102 21.8991 20.2258 22.0771C20.0845 22.375 20.0736 22.4254 20.088 22.712C20.1077 23.102 20.2293 23.3048 20.5784 23.5299C21.1038 23.8688 20.6263 23.8421 26.1709 23.8421H31.1167L31.5454 23.3801C31.8766 23.0232 32.0072 22.8462 32.1197 22.6023C32.2842 22.2458 32.4542 21.6891 32.5276 21.2666C32.59 20.908 32.5511 19.9476 32.4643 19.7023C32.3011 19.0384 32.0122 18.3894 31.6558 17.8231C30.9768 16.7626 30.0093 15.9203 28.611 15.1723C28.3628 15.0396 27.7288 14.7336 27.7386 14.7237C27.769 14.6933 28.7131 15.0877 29.1787 15.3196C30.3288 15.8926 31.3176 16.7128 31.9744 17.6384C32.4612 18.3245 32.865 19.1053 33.0641 19.8922C33.1749 20.33 33.1885 20.7111 33.1872 21.188C33.1845 22.14 32.9859 22.7651 32.5203 23.673C32.1937 24.31 32.119 24.3915 31.6243 24.6519L31.0761 24.8504L26.1963 24.8806C21.2157 24.9116 21.2018 24.8804 20.7164 24.7867C19.6776 24.5863 19.2521 24.3388 18.9808 23.7773C18.8462 23.4988 18.8161 22.9579 18.9136 22.5689C19.1367 21.6788 20.6674 19.3072 22.8088 16.5338C23.2165 16.0057 23.5695 15.5373 23.5932 15.4931C23.706 15.2819 23.5931 15.1421 23.2713 15.0945C23.0469 15.0612 21.9026 15.2393 21.4073 15.3846C20.1966 15.7397 19.7295 15.9206 19.125 16.2682C18.2153 16.7914 17.4692 17.434 16.9514 18.1404C16.3991 18.8937 16.1795 19.3677 15.9707 20.2569C15.8472 20.7827 15.8758 21.6038 16.038 22.1875C16.376 23.4043 17.0936 24.3501 18.3361 25.2165C18.5281 25.3504 18.6852 25.4679 18.6852 25.4776C18.6852 25.512 18.5341 25.4866 18.3043 25.4136Z" fill="url(#paint17_linear_0_1123)"/>
<path d="M15.2447 20.5573C15.2648 19.9381 15.2852 19.7706 15.3799 19.4487C15.616 18.6468 15.9434 18.0369 16.4907 17.3796C17.7309 15.8902 20.0476 14.7665 22.4059 14.5105C23.0588 14.4397 24.2789 14.4335 24.4667 14.5002C24.6596 14.5687 24.8614 14.792 24.9263 15.0089C24.9692 15.1522 24.9636 15.1945 24.88 15.3586C24.8277 15.4613 24.7305 15.6123 24.6639 15.6943C24.5974 15.7763 24.4239 16.0008 24.2784 16.1931C24.1329 16.3854 23.7932 16.8146 23.5234 17.1468C23.2536 17.479 22.8144 18.056 22.5472 18.429C22.0527 19.1195 20.97 20.7575 20.754 21.1419C20.6885 21.2584 20.5719 21.4418 20.4949 21.5493C20.4179 21.6568 20.2859 21.8904 20.2015 22.0684C20.0602 22.3664 20.0493 22.4167 20.0637 22.7033C20.0834 23.0933 20.205 23.2961 20.5541 23.5213C21.0795 23.8601 20.6019 23.8335 26.1466 23.8335H31.0924L31.5211 23.3714C31.8523 23.0145 31.9829 22.8375 32.0954 22.5936C32.2599 22.2371 32.4299 21.6804 32.5033 21.2579C32.5656 20.8994 32.5268 19.9389 32.44 19.6936C32.2767 19.0297 31.9076 18.4611 31.5512 17.8947C30.8722 16.8342 29.9047 15.992 28.5064 15.244C28.2582 15.1112 27.7044 14.7249 27.7143 14.7151C27.7447 14.6846 28.6888 15.079 29.1544 15.3109C30.3044 15.8839 31.2933 16.7041 31.9501 17.6298C32.4368 18.3159 32.8407 19.0966 33.0398 19.8835C33.1506 20.3214 33.1642 20.7024 33.1629 21.1794C33.1602 22.1313 32.9616 22.7564 32.496 23.6644C32.1694 24.3013 32.0947 24.3829 31.5999 24.6432L31.0518 24.8417L26.172 24.872C21.1914 24.9029 21.1775 24.8717 20.692 24.7781C19.6533 24.5776 19.2278 24.3301 18.9565 23.7687C18.8219 23.4901 18.7918 22.9492 18.8893 22.5602C19.1124 21.6701 20.6431 19.2985 22.7844 16.5251C23.1922 15.997 23.5452 15.5287 23.5689 15.4844C23.6817 15.2732 23.5688 15.1335 23.247 15.0858C23.0226 15.0526 21.8783 15.2307 21.383 15.3759C20.1723 15.7311 19.7052 15.9119 19.1007 16.2595C18.191 16.7827 17.4449 17.4253 16.9271 18.1317C16.3748 18.8851 16.1552 19.359 15.9464 20.2483C15.8229 20.7741 15.8515 21.5951 16.0137 22.1789C15.3097 21.5908 15.2295 21.0694 15.2447 20.5573Z" fill="url(#paint18_linear_0_1123)"/>
<path d="M15.4331 22.2863C15.2584 21.7292 15.2186 21.3643 15.2447 20.5573C15.2648 19.9381 15.2852 19.7706 15.38 19.4487C15.616 18.6468 15.9434 18.0369 16.4907 17.3796C17.7309 15.8902 20.0476 14.7665 22.4059 14.5105C23.0588 14.4397 24.2789 14.4335 24.4667 14.5002C24.6596 14.5687 24.8614 14.792 24.9263 15.0089C24.9692 15.1522 24.9636 15.1945 24.88 15.3586C24.8277 15.4613 24.7305 15.6123 24.6639 15.6943C24.5974 15.7763 24.4239 16.0008 24.2784 16.1931C24.1329 16.3854 23.7932 16.8146 23.5234 17.1468C23.2537 17.479 22.8144 18.056 22.5472 18.429C22.0527 19.1195 20.9701 20.7575 20.754 21.1419C20.6885 21.2584 20.5719 21.4418 20.4949 21.5493C20.4179 21.6568 20.2859 21.8904 20.2015 22.0684C20.0602 22.3664 20.0493 22.4167 20.0637 22.7033C20.0834 23.0933 20.205 23.2961 20.5541 23.5213C21.0795 23.8601 20.602 23.8335 26.1466 23.8335H31.0924L31.5211 23.3714C31.8523 23.0145 31.9829 22.8375 32.0954 22.5936C32.2599 22.2371 32.4299 21.6804 32.5033 21.2579C32.5657 20.8994 32.5268 19.9389 32.4401 19.6936C32.2768 19.0297 31.9879 18.3808 31.6315 17.8144C30.9525 16.7539 29.9851 15.9117 28.5867 15.1637C28.3385 15.0309 27.7045 14.7249 27.7143 14.7151C27.7447 14.6846 28.6888 15.079 29.1544 15.3109C30.3045 15.8839 31.2933 16.7041 31.9501 17.6298C32.4369 18.3159 32.8407 19.0966 33.0398 19.8835C33.1506 20.3214 33.1642 20.7024 33.1629 21.1794C33.1602 22.1313 32.9616 22.7564 32.496 23.6644C32.1694 24.3013 32.0947 24.3829 31.6 24.6432L31.0518 24.8417L26.172 24.872C21.1914 24.9029 21.1775 24.8717 20.6921 24.7781C19.6533 24.5776 19.2278 24.3301 18.9565 23.7687C18.8219 23.4901 18.7918 22.9492 18.8893 22.5602C19.1124 21.6701 20.6431 19.2985 22.7845 16.5251C23.1922 15.997 23.5452 15.5287 23.5689 15.4844C23.6817 15.2732 23.5688 15.1335 23.247 15.0858C23.0226 15.0526 21.8783 15.2307 21.383 15.3759C20.1723 15.7311 19.7052 15.9119 19.1007 16.2595C18.191 16.7827 17.4449 17.4253 16.9271 18.1317C16.3748 18.8851 16.1552 19.359 15.9464 20.2483C15.8229 20.7741 15.8515 21.5951 16.0137 22.1789C15.8162 22.2946 16.3437 23.0991 15.4331 22.2863Z" fill="url(#paint19_linear_0_1123)"/>
<path d="M15.4797 22.2398C15.3049 21.6827 15.2652 21.3178 15.2913 20.5108C15.3114 19.8916 15.3318 19.724 15.4265 19.4022C15.6626 18.6002 15.99 17.9904 16.5373 17.3331C17.7775 15.8437 20.0942 14.72 22.4524 14.464C23.1054 14.3932 24.3255 14.387 24.5132 14.4537C24.7062 14.5222 24.908 14.7455 24.9729 14.9624C25.0158 15.1057 25.0102 15.148 24.9266 15.3121C24.8743 15.4148 24.7771 15.5658 24.7105 15.6478C24.644 15.7298 24.4705 15.9543 24.325 16.1466C24.1795 16.3389 23.8397 16.7681 23.57 17.1003C23.3002 17.4325 22.8609 18.0095 22.5938 18.3825C22.0993 19.073 21.0166 20.7109 20.8006 21.0954C20.7351 21.2119 20.6185 21.3953 20.5415 21.5028C20.4645 21.6103 20.3324 21.8439 20.2481 22.0219C20.1068 22.3198 20.0959 22.3702 20.1103 22.6568C20.13 23.0468 20.2516 23.2496 20.6006 23.4747C21.1261 23.8136 20.6485 23.787 26.1932 23.787H31.139L31.5677 23.3249C31.8988 22.968 32.0295 22.791 32.142 22.5471C32.3065 22.1906 32.4764 21.6339 32.5499 21.2114C32.6122 20.8529 32.5734 19.8924 32.4866 19.6471C32.3233 18.9832 31.9542 18.4145 31.5978 17.8482C30.9188 16.7877 29.9513 15.9455 28.5529 15.1974C28.3047 15.0647 27.751 14.6784 27.7609 14.6686C27.7913 14.6381 28.7354 15.0325 29.201 15.2644C30.351 15.8374 31.3399 16.6576 31.9967 17.5833C32.4834 18.2693 32.8872 19.0501 33.0864 19.837C33.1972 20.2749 33.2108 20.6559 33.2095 21.1329C33.2068 22.0848 33.0082 22.7099 32.5426 23.6179C32.2159 24.2548 32.1413 24.3364 31.6465 24.5967L31.0984 24.7952L26.2186 24.8255C21.238 24.8564 21.224 24.8252 20.7386 24.7316C19.6999 24.5311 19.2744 24.2836 19.0031 23.7222C18.8685 23.4436 18.8384 22.9027 18.9359 22.5137C19.159 21.6236 20.6897 19.252 22.831 16.4786C23.2388 15.9505 23.5918 15.4822 23.6154 15.4379C23.7283 15.2267 23.6154 15.0869 23.2936 15.0393C23.0691 15.006 21.9248 15.1842 21.4296 15.3294C20.2189 15.6845 19.7517 15.8654 19.1473 16.213C18.2375 16.7362 17.4915 17.3788 16.9736 18.0852C16.4213 18.8386 16.2018 19.3125 15.9929 20.2017C15.8695 20.7276 15.8981 21.5486 16.0603 22.1324C15.8628 22.2481 15.9057 22.2014 15.4797 22.2398Z" fill="url(#paint20_linear_0_1123)"/>
<g opacity="0.8">
<path d="M22.489 14.5488C23.1033 14.4809 24.2511 14.475 24.4278 14.5389C24.6093 14.6045 24.7992 14.8186 24.8602 15.0265C24.9005 15.1638 24.8953 15.2044 24.8166 15.3616C24.7674 15.46 24.676 15.6048 24.6134 15.6834C24.5507 15.762 24.3875 15.9771 24.2507 16.1614C23.2608 17.1575 23.447 16.5914 23.5831 15.4822C23.6893 15.2798 23.5831 15.1458 23.2803 15.1002C22.8943 14.7947 23.2627 14.8457 22.489 14.5488Z" fill="url(#paint21_linear_0_1123)"/>
</g>
<path d="M23.2601 17.4057C23.0063 17.7241 22.593 18.2772 22.3417 18.6347C21.8765 19.2964 20.8579 20.8663 20.6546 21.2347C20.593 21.3464 20.4833 21.5221 20.4109 21.6252C20.3384 21.7282 20.2142 21.9521 20.1348 22.1227C20.0019 22.4083 19.9916 22.4565 20.0052 22.7312C20.0237 23.105 20.1381 23.2994 20.4665 23.5152C20.9609 23.84 20.5116 23.8144 25.728 23.8144C26.4065 24.1163 31.6992 24.6186 25.7519 24.8097C21.0661 24.8394 21.053 24.8095 20.5963 24.7197C19.6191 24.5276 19.2188 24.2904 18.9635 23.7523C18.8369 23.4853 18.8086 22.9669 18.9003 22.5941C20.0568 18.5749 23.8113 16.5484 23.2601 17.4057Z" fill="url(#paint22_linear_0_1123)"/>
<path d="M22.1495 23.0261C21.9384 22.7303 21.9326 22.3833 22.1311 21.9319C22.4801 21.1382 24.4556 18.3752 25.9468 16.5951C26.8074 15.5679 27.1548 15.079 27.1548 14.895C27.1548 14.814 27.103 14.7153 27.0015 14.603L26.7304 14.3584L26.9726 14.4333C27.1231 14.4799 27.5525 14.6231 27.6809 14.7072C27.8912 14.845 27.8549 15.229 27.6399 15.6034C27.5374 15.7818 27.1303 16.3082 26.7746 16.7223C25.8028 17.8536 24.6539 19.4031 23.5847 21.0246C23.0167 21.886 22.835 22.2523 22.8965 22.4124C22.9282 22.4953 22.3891 23.1234 22.2879 23.1215C22.2487 23.1208 22.1864 23.0778 22.1495 23.0261Z" fill="#505050"/>
<path d="M31.2124 23.3143C31.1211 23.2133 30.8949 22.7398 30.8949 22.6622C30.8949 22.6284 30.9869 22.6283 31.0254 22.5972C31.1416 22.5033 31.2222 22.3129 31.3367 21.8619C31.6046 20.8072 31.4929 19.7624 31.0035 18.745C30.4009 17.4922 29.1536 16.423 27.7617 15.9662C27.5652 15.9017 27.5029 15.8785 27.4614 15.8313C27.3901 15.7502 27.3993 15.72 27.5164 15.4642C27.6033 15.2741 27.6231 15.1742 27.688 15.1648C27.7388 15.1575 27.9858 15.2562 28.3524 15.4351C30.1491 16.3118 31.328 17.4189 31.9212 18.7867C32.232 19.5032 32.2994 19.7864 32.3266 20.489C32.3603 21.3591 32.2222 21.9994 31.8385 22.7519C31.5288 23.3594 31.3635 23.4815 31.2124 23.3143Z" fill="url(#paint23_linear_0_1123)"/>
<path d="M22.6811 23.363C22.4619 23.3356 22.2593 23.1939 22.2593 23.1095C22.2593 23.0255 22.8226 22.3761 22.8931 22.3761C22.9169 22.3761 22.9291 22.4683 23.005 22.507C23.1298 22.5706 23.5189 22.5789 27.0859 22.5945L31.0288 22.6117L31.1988 22.9199C31.3017 23.1064 31.3888 23.2862 31.3721 23.3289C31.3467 23.3941 28.9462 23.4329 25.0311 23.4271C22.7011 23.4236 22.7523 23.3719 22.6811 23.363V23.363Z" fill="url(#paint24_linear_0_1123)"/>
<path opacity="0.5" d="M22.6811 23.363C22.4619 23.3356 22.2593 23.1939 22.2593 23.1095C22.2593 23.0255 22.8226 22.3761 22.8931 22.3761C22.9169 22.3761 22.9291 22.4683 23.005 22.507C23.1298 22.5706 23.5189 22.5789 27.0859 22.5945L31.0288 22.6117L31.1988 22.9199C31.3017 23.1064 31.3888 23.2862 31.3721 23.3289C31.3467 23.3941 28.9462 23.4329 25.0311 23.4271C22.7011 23.4236 22.7523 23.3719 22.6811 23.363V23.363Z" fill="url(#paint25_linear_0_1123)"/>
<path d="M22.6862 27.0994C18.5886 26.7419 15.312 24.3405 14.8251 21.3379C14.5208 19.4617 15.3259 17.6306 17.1011 16.1613C17.7121 15.6556 17.8729 15.5516 18.6593 15.1534C20.1296 14.4089 21.5572 14.0694 23.4279 14.0192C24.4346 13.9922 25.1651 14.0378 25.9909 14.1789C26.71 14.3019 26.796 14.3322 26.9984 14.5346C27.1432 14.6795 27.1792 14.7454 27.1792 14.8657C27.1792 15.0496 26.978 15.33 25.9093 16.6358C24.6402 18.1864 23.8602 19.236 22.848 20.7555C22.0088 22.0154 21.8927 22.2961 22.0241 22.7482C22.1212 23.0821 22.4251 23.2369 22.7237 23.2937C23.1105 23.3673 23.5458 23.35 26.4754 23.3454C28.0143 23.3429 31.2784 23.3499 31.3796 23.3425C31.5113 23.3329 31.5881 23.2947 31.6762 23.2103C31.9787 22.8187 32.0974 22.6551 31.6973 23.3662C31.5261 23.6706 31.265 23.9065 30.9775 23.9662C30.6445 24.0353 21.8817 24.0012 21.4 23.9289C20.9791 23.8657 20.7353 23.7728 20.4091 23.5513C20.2046 23.4125 20.1256 23.3255 20.0345 23.1394C19.9321 22.9302 19.922 22.8721 19.945 22.6258C19.9738 22.3168 20.1026 22.0012 20.3472 21.6403C20.4357 21.5096 20.5725 21.2882 20.6511 21.1484C20.7296 21.0085 21.0632 20.4839 21.3924 19.9827C22.2659 18.6526 23.1551 17.4411 23.7881 16.7188C24.1863 16.2644 24.761 15.4779 24.8024 15.3306C24.8826 15.0449 24.6582 14.6591 24.3477 14.5491C24.1362 14.4741 23.0115 14.4902 22.3341 14.5779C18.6139 15.0595 15.8065 17.2044 15.3315 19.928C15.2508 20.391 15.2503 21.3099 15.3305 21.768C15.552 23.0328 16.3619 24.2065 17.6445 25.1215C18.1118 25.4549 19.1345 25.9793 19.7402 26.1961C22.4875 27.1797 25.9688 27.0231 28.5853 25.7983C29.2145 25.5037 29.4842 25.3209 29.8762 24.9234L30.2206 24.5741L30.8148 24.5458C31.3822 24.5187 31.696 24.548 31.6544 24.6152C31.6165 24.6765 30.8164 24.9895 30.4963 25.1031C30.3155 25.1673 30.1474 25.2833 29.8915 25.4442C27.9295 26.6775 25.2049 27.3192 22.6861 27.0994L22.6862 27.0994Z" fill="url(#paint26_linear_0_1123)"/>
<path opacity="0.3" d="M22.7328 27.0919C18.6352 26.7344 15.3587 24.333 14.8717 21.3304C14.5675 19.4542 15.3725 17.6231 17.1477 16.1538C17.7587 15.6481 17.9195 15.5441 18.7059 15.1459C20.1762 14.4014 21.6038 14.0619 23.4746 14.0117C22.862 14.3113 23.1953 14.536 22.3807 14.5704C18.6605 15.052 15.8531 17.1969 15.3781 19.9205C15.2974 20.3834 15.2969 21.3024 15.3771 21.7605C15.5986 23.0253 16.4085 24.199 17.6912 25.114C18.1584 25.4474 19.1812 25.9718 19.7868 26.1886C22.5342 27.1722 26.0155 27.0156 28.6319 25.7907C29.2611 25.4962 29.5309 25.3134 29.9228 24.9159L30.2673 24.5666L30.8614 24.5382C31.4288 24.5112 31.7426 24.5404 31.701 24.6077C31.6631 24.669 30.863 24.982 30.5429 25.0956C30.3621 25.1598 30.194 25.2758 29.9381 25.4366C27.9761 26.67 25.2515 27.3117 22.7327 27.0919L22.7328 27.0919Z" fill="url(#paint27_linear_0_1123)"/>
<path d="M22.7048 27.0969C18.6073 26.7394 15.4271 24.4986 14.9402 21.496C14.6359 19.6197 15.4409 17.8207 17.2161 16.3515C17.8271 15.8458 18.0079 15.7402 18.7461 15.3098C20.1699 14.4799 21.5759 14.0668 23.4466 14.0167C24.4533 13.9897 25.1837 14.0352 26.0095 14.1764C26.7287 14.2993 26.8147 14.3297 27.0171 14.532C27.1619 14.6769 27.1979 14.7428 27.1979 14.8632C27.1979 15.047 26.9967 15.3274 25.928 16.6332C24.6588 18.1838 23.8789 19.2335 22.8667 20.753C22.0275 22.0128 21.9114 22.2936 22.0428 22.7456C22.1399 23.0795 22.4438 23.2343 22.7424 23.2912C23.1292 23.3648 23.5645 23.3475 26.4941 23.3428C28.033 23.3404 31.2971 23.3474 31.3983 23.34C31.53 23.3303 31.6068 23.2922 31.6949 23.2077C31.9974 22.8161 32.1161 22.6525 31.716 23.3637C31.5448 23.668 31.2837 23.904 30.9961 23.9636C30.6632 24.0328 21.9004 23.9986 21.4186 23.9263C20.9978 23.8632 20.754 23.7703 20.4277 23.5487C20.2233 23.4099 20.1442 23.323 20.0532 23.1368C19.9508 22.9276 19.9407 22.8695 19.9637 22.6232C19.9925 22.3142 20.1213 21.9986 20.3659 21.6377C20.4544 21.507 20.5912 21.2857 20.6697 21.1458C20.7483 21.0059 21.0819 20.4814 21.4111 19.9801C22.2846 18.65 23.1738 17.4386 23.8068 16.7163C24.205 16.2618 24.7797 15.4753 24.8211 15.3281C24.9013 15.0424 24.6769 14.6565 24.3664 14.5465C24.1549 14.4715 23.0301 14.4877 22.3528 14.5753C18.6326 15.0569 15.8252 17.2019 15.3502 19.9255C15.2695 20.3884 15.269 21.3074 15.3492 21.7655C15.5707 23.0302 16.3806 24.2039 17.6632 25.119C18.1305 25.4523 19.1532 25.9768 19.7589 26.1936C22.5062 27.1772 25.9875 27.0206 28.604 25.7957C29.2332 25.5011 29.5029 25.3184 29.8949 24.9209L30.2393 24.5716L30.8335 24.5432C31.4009 24.5161 31.7147 24.5454 31.6731 24.6126C31.6352 24.674 30.835 24.987 30.5149 25.1006C30.3342 25.1647 30.1661 25.2807 29.9102 25.4416C27.9481 26.675 25.2236 27.3166 22.7048 27.0969L22.7048 27.0969Z" fill="url(#paint28_linear_0_1123)"/>
<path opacity="0.5" d="M22.6862 27.0995C18.5886 26.742 15.312 24.3406 14.8251 21.338C14.5208 19.4617 15.3259 17.6306 17.1011 16.1614C17.7121 15.6557 17.8729 15.5517 18.6593 15.1535C20.1296 14.409 21.5572 14.0694 23.4279 14.0193C23.3885 14.4268 22.7435 14.5797 22.3341 14.578C18.6139 15.0596 15.8065 17.2045 15.3315 19.9281C15.2508 20.391 15.2503 21.31 15.3305 21.7681C15.552 23.0328 16.3619 24.2065 17.6445 25.1216C18.1118 25.4549 19.1345 25.9794 19.7402 26.1962C22.4875 27.1798 25.9688 27.0232 28.5853 25.7983C29.2145 25.5038 29.4842 25.321 29.8762 24.9235L30.2206 24.5742L30.8148 24.5458C31.3822 24.5187 31.696 24.548 31.6544 24.6152C31.6165 24.6766 30.8164 24.9896 30.4963 25.1032C30.3155 25.1673 30.1474 25.2833 29.8915 25.4442C27.9295 26.6776 25.2049 27.3192 22.6861 27.0995H22.6862Z" fill="url(#paint29_linear_0_1123)"/>
<path opacity="0.3" d="M22.7328 27.0919C18.6352 26.7344 15.3587 24.333 14.8717 21.3304C14.5675 19.4542 15.3725 17.6231 17.1477 16.1538C17.7587 15.6481 17.9195 15.5441 18.7059 15.1459C20.1762 14.4014 21.6038 14.0619 23.4746 14.0117C22.862 14.3113 23.1953 14.536 22.3807 14.5704C18.6605 15.052 15.8531 17.1969 15.3781 19.9205C15.2974 20.3834 15.2969 21.3024 15.3771 21.7605C15.5986 23.0253 16.4085 24.199 17.6912 25.114C18.1584 25.4474 19.1812 25.9718 19.7868 26.1886C22.5342 27.1722 26.0155 27.0156 28.6319 25.7907C29.2611 25.4962 29.5309 25.3134 29.9228 24.9159L30.2673 24.5666L30.8614 24.5382C31.4288 24.5112 31.7426 24.5404 31.701 24.6077C31.6631 24.669 30.863 24.982 30.5429 25.0956C30.3621 25.1598 30.194 25.2758 29.9381 25.4366C27.9761 26.67 25.2515 27.3117 22.7327 27.0919L22.7328 27.0919Z" fill="url(#paint30_linear_0_1123)"/>
<path opacity="0.3" d="M23.1573 23.5452C22.8205 23.5371 22.1949 23.0466 22.2412 23.0859C22.5943 23.3856 24.077 23.3583 26.9783 23.3512L31.3809 23.3404L31.4931 23.233C31.5548 23.1739 31.6934 22.9403 31.8011 22.7139C32.4398 21.3713 32.4421 20.01 31.808 18.6854C31.5502 18.1468 31.2488 17.7217 30.7705 17.2221C30.077 16.4977 29.423 16.0054 28.3756 15.5432C27.6328 15.2153 27.6113 15.2879 27.6419 15.0818C27.6419 15.0307 27.6141 14.9653 27.5915 14.8845C27.4937 14.5355 27.5388 14.6123 28.4204 15.073C29.6051 15.6919 30.2445 16.1134 30.9902 16.8903C32.6374 18.6065 33.047 20.821 32.0854 22.811C31.9014 23.1916 31.6377 23.4515 31.344 23.5415C31.2132 23.5816 30.4452 23.5847 27.3764 23.5812C25.1733 23.5786 24.883 23.5868 23.1573 23.5452Z" fill="url(#paint31_linear_0_1123)"/>
<path d="M23.1572 23.432C22.5706 23.424 22.0417 22.9447 22.088 22.9835C22.4411 23.2792 24.077 23.2476 26.9782 23.2406L31.3809 23.23L31.4931 23.1239C31.5548 23.0656 31.6933 22.835 31.801 22.6116C32.4397 21.2865 32.4421 19.943 31.8079 18.6357C31.5501 18.1041 31.2487 17.6846 30.7705 17.1915C30.077 16.4765 29.423 15.9907 28.3756 15.5345C27.6328 15.211 27.6113 15.2826 27.6419 15.0792C27.6419 15.0288 27.6141 14.9641 27.5914 14.8844C27.4937 14.54 27.5842 14.7952 28.4658 15.2498C29.6505 15.8606 30.1536 16.187 30.8993 16.9538C32.5465 18.6475 33.047 20.7435 32.0854 22.7074C31.9014 23.0831 31.6376 23.3396 31.344 23.4284C31.2131 23.468 30.4452 23.4711 27.3763 23.4676C25.1732 23.4651 24.8833 23.4556 23.1572 23.432Z" fill="url(#paint32_linear_0_1123)"/>
<path opacity="0.5" d="M31.8079 18.6852C31.5501 18.1467 31.2487 17.7216 30.7705 17.222C30.077 16.4975 29.423 16.0053 28.3756 15.5431C27.6328 15.2152 27.6113 15.2878 27.6419 15.0817C27.6419 15.0306 27.6141 14.9651 27.5914 14.8844C27.4937 14.5354 27.482 14.7258 28.3636 15.1864C29.5483 15.8053 30.2445 16.1133 30.9902 16.8902C31.6266 17.7569 31.2049 17.294 31.8079 18.6852Z" fill="url(#paint33_linear_0_1123)"/>
<path opacity="0.3" d="M29.9228 24.9159L30.2673 24.5666L30.8615 24.5382C31.4288 24.5111 31.7426 24.5404 31.7011 24.6077C31.3027 25.0585 29.5384 25.3786 29.9228 24.9159Z" fill="url(#paint34_linear_0_1123)"/>
<path opacity="0.6" d="M22.7048 27.0876C18.6073 26.7301 15.4271 24.4893 14.9402 21.4867C14.6359 19.6104 15.4409 17.8115 17.2161 16.3422C17.8271 15.8365 18.0079 15.7309 18.7461 15.3005C20.1699 14.4706 21.5759 14.0576 23.4466 14.0074C24.4533 13.9804 25.1837 14.0259 26.0096 14.1671C26.7287 14.29 26.8147 14.3204 27.0171 14.5227C27.1619 14.6676 27.1979 14.7335 27.1979 14.8539C27.1979 15.0377 26.9967 15.3181 25.928 16.6239C24.6588 18.1745 23.8789 19.2242 22.8667 20.7437C22.0275 22.0036 21.9114 22.2843 22.0428 22.7363C22.1399 23.0702 22.4438 23.2251 22.7424 23.2819C23.1292 23.3555 23.5645 23.3382 26.4941 23.3335C28.033 23.3311 31.2971 23.3381 31.3983 23.3307C31.53 23.321 31.6068 23.2829 31.6949 23.1984C31.9974 22.8068 32.1161 22.6432 31.716 23.3544C31.5448 23.6587 31.2837 23.8947 30.9961 23.9544C30.6632 24.0235 21.9004 23.9894 21.4186 23.9171C20.9978 23.8539 20.754 23.761 20.4277 23.5395C20.2233 23.4006 20.1442 23.3137 20.0532 23.1276C19.9508 22.9183 19.9407 22.8602 19.9637 22.614C19.9925 22.3049 20.1213 21.9894 20.3659 21.6284C20.4544 21.4978 20.5912 21.2764 20.6697 21.1365C20.7483 20.9966 21.0819 20.4721 21.4111 19.9709C22.2846 18.6407 23.1738 17.4293 23.8068 16.707C24.205 16.2526 24.7797 15.466 24.8211 15.3188C24.9013 15.0331 24.6769 14.6472 24.3664 14.5372C24.1549 14.4623 23.0301 14.4784 22.3528 14.5661C18.6326 15.0477 15.8252 17.1926 15.3502 19.9162C15.2695 20.3791 15.269 21.2981 15.3492 21.7562C15.5707 23.0209 16.3806 24.1947 17.6632 25.1097C18.1305 25.443 19.1532 25.9675 19.7589 26.1843C22.5062 27.1679 25.9875 27.0113 28.604 25.7864C29.2332 25.4919 29.5029 25.3091 29.8949 24.9116L30.2393 24.5623L30.8335 24.5339C31.4009 24.5068 31.7147 24.5361 31.6731 24.6033C31.6352 24.6647 30.8351 24.9777 30.515 25.0913C30.3342 25.1554 30.1661 25.2714 29.9102 25.4323C27.9482 26.6657 25.2236 27.3073 22.7048 27.0876H22.7048Z" fill="url(#paint35_radial_0_1123)"/>
<defs>
<linearGradient id="paint0_linear_0_1123" x1="22.9249" y1="34.7839" x2="22.7716" y2="28.4477" gradientUnits="userSpaceOnUse">
<stop stop-color="#505050"/>
<stop offset="0.0584744" stop-color="#525252"/>
<stop offset="0.56152" stop-color="#555555"/>
<stop offset="0.786532" stop-color="#5A5A5A"/>
<stop offset="1" stop-color="#C8C8C8"/>
</linearGradient>
<linearGradient id="paint1_linear_0_1123" x1="29.9745" y1="29.363" x2="29.9745" y2="29.9654" gradientUnits="userSpaceOnUse">
<stop stop-color="#B8B8B8"/>
<stop offset="1" stop-color="#828282"/>
</linearGradient>
<linearGradient id="paint2_linear_0_1123" x1="24.8657" y1="28.7623" x2="24.7604" y2="33.3292" gradientUnits="userSpaceOnUse">
<stop stop-color="#464646"/>
<stop offset="1"/>
</linearGradient>
<linearGradient id="paint3_linear_0_1123" x1="24.8655" y1="28.7289" x2="24.7517" y2="33.4789" gradientUnits="userSpaceOnUse">
<stop stop-color="#464646"/>
<stop offset="1"/>
</linearGradient>
<linearGradient id="paint4_linear_0_1123" x1="24.8655" y1="28.376" x2="24.7259" y2="33.6361" gradientUnits="userSpaceOnUse">
<stop stop-color="#464646"/>
<stop offset="1"/>
</linearGradient>
<linearGradient id="paint5_linear_0_1123" x1="24.8655" y1="28.376" x2="24.7259" y2="33.6361" gradientUnits="userSpaceOnUse">
<stop stop-color="#464646"/>
<stop offset="1"/>
</linearGradient>
<linearGradient id="paint6_linear_0_1123" x1="24.8655" y1="28.7283" x2="24.7468" y2="33.5786" gradientUnits="userSpaceOnUse">
<stop stop-color="#464646"/>
<stop offset="1"/>
</linearGradient>
<linearGradient id="paint7_linear_0_1123" x1="24.8655" y1="28.376" x2="24.7259" y2="33.6361" gradientUnits="userSpaceOnUse">
<stop stop-color="#464646"/>
<stop offset="1"/>
</linearGradient>
<linearGradient id="paint8_linear_0_1123" x1="24.8655" y1="28.3759" x2="24.7259" y2="33.6361" gradientUnits="userSpaceOnUse">
<stop stop-color="#464646"/>
<stop offset="1"/>
</linearGradient>
<linearGradient id="paint9_linear_0_1123" x1="21.5033" y1="28.61" x2="21.3903" y2="34.0692" gradientUnits="userSpaceOnUse">
<stop stop-color="#787878"/>
<stop offset="1" stop-color="#1E1E1E"/>
</linearGradient>
<linearGradient id="paint10_linear_0_1123" x1="22.8963" y1="28.6852" x2="23.0846" y2="33.1279" gradientUnits="userSpaceOnUse">
<stop stop-color="#B4B4B4"/>
<stop offset="0.322353" stop-color="#828282"/>
<stop offset="1" stop-color="#3C3C3C"/>
</linearGradient>
<linearGradient id="paint11_linear_0_1123" x1="23.576" y1="34.3394" x2="23.7623" y2="31.2455" gradientUnits="userSpaceOnUse">
<stop stop-color="#828282"/>
<stop offset="0.5" stop-color="#828282"/>
<stop offset="1" stop-color="#3C3C3C"/>
</linearGradient>
<linearGradient id="paint12_linear_0_1123" x1="23.1599" y1="30.8689" x2="23.2352" y2="33.2032" gradientUnits="userSpaceOnUse">
<stop stop-color="#828282"/>
<stop offset="0.5" stop-color="#828282"/>
<stop offset="1" stop-color="#3C3C3C"/>
</linearGradient>
<linearGradient id="paint13_linear_0_1123" x1="14.4219" y1="18.0208" x2="31.1544" y2="28.9222" gradientUnits="userSpaceOnUse">
<stop stop-color="#000032"/>
<stop offset="0.25" stop-color="#646464"/>
<stop offset="0.423823"/>
<stop offset="1" stop-color="#787878"/>
</linearGradient>
<linearGradient id="paint14_linear_0_1123" x1="15.1936" y1="25.9911" x2="32.3458" y2="25.8626" gradientUnits="userSpaceOnUse">
<stop stop-color="#999999"/>
<stop offset="0.220528" stop-color="#3C3C3C" stop-opacity="0.87451"/>
<stop offset="0.515847" stop-color="#969696"/>
<stop offset="0.752781" stop-color="#828282"/>
<stop offset="1" stop-color="#5A5A5A"/>
</linearGradient>
<linearGradient id="paint15_linear_0_1123" x1="26.4677" y1="27.5007" x2="26.4355" y2="23.293" gradientUnits="userSpaceOnUse">
<stop/>
<stop offset="1" stop-opacity="0"/>
</linearGradient>
<linearGradient id="paint16_linear_0_1123" x1="20.6219" y1="14.6206" x2="32.9152" y2="28.6044" gradientUnits="userSpaceOnUse">
<stop stop-color="#5A5A5A"/>
<stop offset="0.268765" stop-color="#505050"/>
<stop offset="0.632019" stop-color="#666666"/>
<stop offset="0.667453" stop-color="#666666"/>
<stop offset="1" stop-color="#666666"/>
</linearGradient>
<linearGradient id="paint17_linear_0_1123" x1="20.6219" y1="14.6206" x2="32.9152" y2="28.6044" gradientUnits="userSpaceOnUse">
<stop stop-color="#5A5A5A"/>
<stop offset="0.268765" stop-color="#505050"/>
<stop offset="0.632019" stop-color="#666666"/>
<stop offset="0.667453" stop-color="#666666"/>
<stop offset="1" stop-color="#666666"/>
</linearGradient>
<linearGradient id="paint18_linear_0_1123" x1="15.8812" y1="16.0026" x2="28.4581" y2="21.4275" gradientUnits="userSpaceOnUse">
<stop stop-color="#323232" stop-opacity="0"/>
<stop offset="0.39399" stop-color="#323232" stop-opacity="0.94902"/>
<stop offset="0.466851" stop-color="#323232" stop-opacity="0.901961"/>
<stop offset="0.704071" stop-color="#E1E1E1" stop-opacity="0.498039"/>
<stop offset="1" stop-color="#C8C8C8" stop-opacity="0"/>
</linearGradient>
<linearGradient id="paint19_linear_0_1123" x1="26.3714" y1="25.3487" x2="26.4358" y2="23.293" gradientUnits="userSpaceOnUse">
<stop/>
<stop offset="1" stop-opacity="0"/>
</linearGradient>
<linearGradient id="paint20_linear_0_1123" x1="15.3482" y1="17.1809" x2="17.0692" y2="18.9957" gradientUnits="userSpaceOnUse">
<stop stop-color="#28170B"/>
<stop offset="1" stop-color="#28170B" stop-opacity="0"/>
</linearGradient>
<linearGradient id="paint21_linear_0_1123" x1="23.6224" y1="16.0273" x2="22.981" y2="14.576" gradientUnits="userSpaceOnUse">
<stop stop-color="#B3B3B3" stop-opacity="0"/>
<stop offset="0.160949" stop-color="#B3B3B3" stop-opacity="0.300885"/>
<stop offset="0.341789" stop-color="#B3B3B3" stop-opacity="0.87451"/>
<stop offset="0.405936" stop-color="#B3B3B3" stop-opacity="0.74902"/>
<stop offset="0.658295" stop-color="#B3B3B3" stop-opacity="0"/>
<stop offset="1" stop-color="#B3B3B3" stop-opacity="0"/>
</linearGradient>
<linearGradient id="paint22_linear_0_1123" x1="19.6407" y1="24.0052" x2="18.8152" y2="21.4832" gradientUnits="userSpaceOnUse">
<stop stop-color="#B3B3B3" stop-opacity="0"/>
<stop offset="0.12143" stop-color="#B3B3B3" stop-opacity="0.368627"/>
<stop offset="0.285824" stop-color="#B3B3B3" stop-opacity="0.87451"/>
<stop offset="0.383948" stop-color="#B3B3B3" stop-opacity="0.74902"/>
<stop offset="0.516942" stop-color="#B3B3B3" stop-opacity="0.498039"/>
<stop offset="1" stop-color="#B3B3B3" stop-opacity="0"/>
</linearGradient>
<linearGradient id="paint23_linear_0_1123" x1="28.7307" y1="14.7501" x2="31.2602" y2="22.304" gradientUnits="userSpaceOnUse">
<stop/>
<stop offset="0.552013" stop-color="#7D7D7D"/>
<stop offset="0.693304" stop-color="#969696"/>
<stop offset="0.857541" stop-color="#8A8A8A"/>
<stop offset="1" stop-color="#505050"/>
</linearGradient>
<linearGradient id="paint24_linear_0_1123" x1="22.1083" y1="22.5887" x2="30.4262" y2="24.5563" gradientUnits="userSpaceOnUse">
<stop stop-color="#323232"/>
<stop offset="0.105545" stop-color="#B4B4B6"/>
<stop offset="0.253205" stop-color="#B4B4B4"/>
<stop offset="1" stop-color="#AAAAAA"/>
</linearGradient>
<linearGradient id="paint25_linear_0_1123" x1="27.3225" y1="22.2453" x2="27.3225" y2="23.6307" gradientUnits="userSpaceOnUse">
<stop stop-color="#505050"/>
<stop offset="1" stop-color="#FAFAFA" stop-opacity="0"/>
</linearGradient>
<linearGradient id="paint26_linear_0_1123" x1="16.4918" y1="13.2741" x2="20.1535" y2="19.12" gradientUnits="userSpaceOnUse">
<stop stop-color="#8282A9"/>
<stop offset="1" stop-color="#A9A9A9" stop-opacity="0"/>
</linearGradient>
<linearGradient id="paint27_linear_0_1123" x1="31.034" y1="24.5359" x2="26.5442" y2="26.0758" gradientUnits="userSpaceOnUse">
<stop stop-color="#FAFAFA"/>
<stop offset="0.25" stop-color="#FAFAFA" stop-opacity="0.901961"/>
<stop offset="0.5" stop-color="#E1E1E1" stop-opacity="0.498039"/>
<stop offset="1" stop-color="#C8C8C8" stop-opacity="0"/>
</linearGradient>
<linearGradient id="paint28_linear_0_1123" x1="24.3799" y1="13.3358" x2="24.2811" y2="29.221" gradientUnits="userSpaceOnUse">
<stop stop-color="#AAAAAA"/>
<stop offset="0.101807" stop-color="#BEBEBE"/>
<stop offset="0.211525" stop-color="#BEBEBE"/>
<stop offset="0.549206" stop-color="#B4B4B4"/>
<stop offset="0.673505" stop-color="#878787"/>
<stop offset="0.778718" stop-color="#969696"/>
<stop offset="1" stop-color="#AAAAAA"/>
</linearGradient>
<linearGradient id="paint29_linear_0_1123" x1="14.3584" y1="24.353" x2="18.0523" y2="21.141" gradientUnits="userSpaceOnUse">
<stop stop-color="#E6E6E6"/>
<stop offset="1" stop-color="#FAFAFA" stop-opacity="0"/>
</linearGradient>
<linearGradient id="paint30_linear_0_1123" x1="31.034" y1="24.5359" x2="26.5442" y2="26.0758" gradientUnits="userSpaceOnUse">
<stop stop-color="#FAFAFA"/>
<stop offset="0.25" stop-color="#FAFAFA" stop-opacity="0.901961"/>
<stop offset="0.5" stop-color="#E1E1E1" stop-opacity="0.498039"/>
<stop offset="1" stop-color="#C8C8C8" stop-opacity="0"/>
</linearGradient>
<linearGradient id="paint31_linear_0_1123" x1="27.3138" y1="14.6599" x2="28.2288" y2="15.3023" gradientUnits="userSpaceOnUse">
<stop stop-color="#FAFAFA"/>
<stop offset="0.25" stop-color="#EDEDED" stop-opacity="0.74902"/>
<stop offset="0.5" stop-color="#E1E1E1" stop-opacity="0.498039"/>
<stop offset="1" stop-color="#C8C8C8" stop-opacity="0"/>
</linearGradient>
<linearGradient id="paint32_linear_0_1123" x1="22.7418" y1="23.9355" x2="31.2536" y2="15.1345" gradientUnits="userSpaceOnUse">
<stop stop-color="#969696"/>
<stop offset="0.132623" stop-color="#C0BEBE"/>
<stop offset="0.5" stop-color="#B4B4B4"/>
<stop offset="1" stop-color="#BEBEBE"/>
</linearGradient>
<linearGradient id="paint33_linear_0_1123" x1="27.1744" y1="15.1345" x2="29.0052" y2="15.4878" gradientUnits="userSpaceOnUse">
<stop stop-opacity="0"/>
<stop offset="0.109171" stop-color="#323232" stop-opacity="0.94902"/>
<stop offset="0.218341" stop-color="#323232" stop-opacity="0.901961"/>
<stop offset="0.506057" stop-color="#E1E1E1" stop-opacity="0.498039"/>
<stop offset="1" stop-color="#C8C8C8" stop-opacity="0"/>
</linearGradient>
<linearGradient id="paint34_linear_0_1123" x1="30.7931" y1="24.5359" x2="30.7841" y2="25.0961" gradientUnits="userSpaceOnUse">
<stop stop-color="#FAFAFA"/>
<stop offset="0.5" stop-color="#FAFAFA" stop-opacity="0.901961"/>
<stop offset="0.697845" stop-color="#E1E1E1" stop-opacity="0.498039"/>
<stop offset="1" stop-color="#C8C8C8" stop-opacity="0"/>
</linearGradient>
<radialGradient id="paint35_radial_0_1123" cx="0" cy="0" r="1" gradientUnits="userSpaceOnUse" gradientTransform="translate(23.7484 17.986) rotate(76.732) scale(4.40043 5.59461)">
<stop stop-color="#DCDCDC" stop-opacity="0.901961"/>
<stop offset="0.752174" stop-color="#E1E1E1" stop-opacity="0.45098"/>
<stop offset="1" stop-color="#C8C8C8" stop-opacity="0"/>
</radialGradient>
</defs>
</svg>
