<svg width="48" height="48" viewBox="0 0 48 48" fill="none" xmlns="http://www.w3.org/2000/svg">
<g clip-path="url(#clip0_0_1279)">
<path d="M24 14.1438C15.2458 14.1438 8.14789 18.7355 8.14789 24.398C8.14789 30.0625 15.2458 34.6563 24 34.6563C32.7541 34.6563 39.8521 30.0646 39.8521 24.398C39.8521 18.7313 32.7541 14.1438 24 14.1438ZM24 30.2542C22.6979 30.2542 21.6354 27.6896 21.5687 24.4625C22.3521 24.5313 23.1666 24.5688 24 24.5688C24.8333 24.5688 25.6479 24.5313 26.4312 24.4625C26.3646 27.6875 25.3021 30.2542 24 30.2542ZM21.7291 21.9C22.0833 19.6188 22.9666 18 24 18C25.0333 18 25.9166 19.6188 26.2708 21.9C25.5437 21.9646 24.7854 22 24 22C23.2146 22 22.4562 21.9646 21.7291 21.9ZM24 15.6271C22.3 15.6271 20.85 18.173 20.3146 21.7271C17.0916 21.225 14.8416 20.0792 14.8416 18.748C14.8416 16.9521 18.9416 15.4959 24 15.4959C29.0583 15.4959 33.1583 16.9521 33.1583 18.748C33.1583 20.0792 30.9083 21.225 27.6854 21.7271C27.15 18.173 25.7 15.6271 24 15.6271ZM10.4208 24.0146C10.4208 22.2771 11.0896 20.6459 12.2541 19.2459C12.2416 19.3438 12.2333 19.4438 12.2333 19.5438C12.2333 21.7334 15.5166 23.6 20.0979 24.2875C20.0937 24.4459 20.0937 24.6063 20.0937 24.7667C20.0937 28.848 21.2375 32.3042 22.8187 33.4771C15.8708 33.0584 10.4208 28.9813 10.4208 24.0146ZM25.1812 33.4771C26.7625 32.3042 27.9062 28.848 27.9062 24.7667C27.9062 24.6042 27.9041 24.4459 27.9021 24.2875C32.4812 23.6 35.7666 21.7355 35.7666 19.5438C35.7666 19.4438 35.7583 19.3438 35.7458 19.2459C36.9104 20.65 37.5791 22.2771 37.5791 24.0146C37.5791 28.9813 32.1291 33.0584 25.1812 33.4771Z" fill="#282830"/>
</g>
<defs>
<clipPath id="clip0_0_1279">
<rect width="32" height="20.8" fill="white" transform="translate(8 14)"/>
</clipPath>
</defs>
</svg>
