<svg width="48" height="48" viewBox="0 0 48 48" fill="none" xmlns="http://www.w3.org/2000/svg">
<g clip-path="url(#clip0_0_24745)">
<path d="M24.019 38.4339C16.0912 38.4339 9.59609 31.907 9.59609 23.9792C9.59609 22.1962 9.91448 20.5087 10.5194 18.9168L18.9567 35.8868C19.0522 36.1097 19.2114 36.3008 19.4661 36.3008C19.7208 36.3008 19.88 36.1097 19.9755 35.8868L23.8598 27.1949C23.8917 27.0994 23.9553 27.0038 24.0509 27.0038C24.1464 27.0038 24.1782 27.0994 24.2419 27.1949L28.1262 35.8868C28.2217 36.1097 28.3809 36.3008 28.6356 36.3008C28.8904 36.3008 29.0495 36.1097 29.1451 35.8868L37.5823 18.9168C38.1873 20.5087 38.5056 22.1962 38.5056 23.9792C38.442 31.907 31.9469 38.4339 24.019 38.4339ZM24.019 20.6998C23.9235 20.6998 23.8917 20.6043 23.828 20.5087L19.3069 10.3204C20.7715 9.7791 22.3634 9.49256 24.019 9.49256C25.6746 9.49256 27.2666 9.7791 28.7312 10.3204L24.2101 20.5087C24.1464 20.6361 24.1145 20.6998 24.019 20.6998ZM19.4024 31.1747C19.3069 31.1747 19.2751 31.0792 19.2114 30.9837L11.8885 16.2105C13.1939 14.2047 14.945 12.5172 17.0782 11.3392L22.3634 23.0877C22.4271 23.2787 22.5863 23.3424 22.7455 23.3424H25.2926C25.4836 23.3424 25.611 23.3106 25.7065 23.0877L30.9917 11.3392C33.0931 12.5172 34.876 14.2047 36.1814 16.2105L28.7948 30.9837C28.763 31.0792 28.6993 31.1747 28.6038 31.1747C28.5083 31.1747 28.4764 31.0792 28.4128 30.9837L25.6428 24.6796C25.5473 24.4568 25.4199 24.4249 25.2289 24.4249H22.6818C22.4908 24.4249 22.3634 24.4568 22.2679 24.6796L19.5934 30.9837C19.5616 31.0792 19.4979 31.1747 19.4024 31.1747ZM24.019 39.8985C32.8384 39.8985 39.9384 32.7985 39.9384 23.9792C39.9384 15.1598 32.8384 8.05981 24.019 8.05981C15.1997 8.05981 8.09967 15.1598 8.09967 23.9792C8.09967 32.7985 15.1997 39.8985 24.019 39.8985Z" fill="#001E50"/>
</g>
<defs>
<clipPath id="clip0_0_24745">
<rect width="32" height="32" fill="white" transform="translate(8 8)"/>
</clipPath>
</defs>
</svg>
