<svg width="37" height="27" viewBox="0 0 37 27" fill="none" xmlns="http://www.w3.org/2000/svg">
<g id="SVG">
<path id="Vector" d="M9.1 25.8898C6.76667 25.8898 4.66667 24.9565 2.8 23.0898C0.933334 21.1565 0 18.3231 0 14.5898C0 10.3231 1.13333 6.8565 3.4 4.18984C5.73333 1.45651 9.03333 0.0898438 13.3 0.0898438C14.8333 0.0898438 16.0333 0.189842 16.9 0.389839V4.98984C15.9667 4.8565 14.7667 4.78984 13.3 4.78984C11.0333 4.78984 9.2 5.5565 7.8 7.08984C6.46667 8.42317 5.7 10.1898 5.5 12.3898C6.36667 11.3231 7.76667 10.7898 9.7 10.7898C11.7 10.7898 13.4 11.4898 14.8 12.8898C16.2 14.2231 16.9 15.9898 16.9 18.1898C16.9 20.4565 16.1667 22.3231 14.7 23.7898C13.2333 25.1898 11.3667 25.8898 9.1 25.8898ZM29 25.8898C26.6667 25.8898 24.5667 24.9565 22.7 23.0898C20.8333 21.1565 19.9 18.3231 19.9 14.5898C19.9 10.3231 21.0333 6.8565 23.3 4.18984C25.6333 1.45651 28.9333 0.0898438 33.2 0.0898438C34.7333 0.0898438 35.9333 0.189842 36.8 0.389839V4.98984C35.8667 4.8565 34.6667 4.78984 33.2 4.78984C30.9333 4.78984 29.1 5.5565 27.7 7.08984C26.3667 8.42317 25.6 10.1898 25.4 12.3898C26.2667 11.3231 27.6667 10.7898 29.6 10.7898C31.6 10.7898 33.3 11.4898 34.7 12.8898C36.1 14.2231 36.8 15.9898 36.8 18.1898C36.8 20.4565 36.0667 22.3231 34.6 23.7898C33.1333 25.1898 31.2667 25.8898 29 25.8898Z" fill="#050B20"/>
</g>
</svg>
