<svg width="234" height="24" viewBox="0 0 234 24" fill="none" xmlns="http://www.w3.org/2000/svg">
<path d="M7.536 21.08C7.536 22.328 6.864 23 5.616 23H2.096C0.848 23 0.176 22.328 0.176 21.08V2.52C0.176 1.272 0.848 0.599998 2.096 0.599998H5.616C6.864 0.599998 7.536 1.272 7.536 2.52V8.536L11.568 1.88C12.112 0.983999 12.848 0.599998 13.872 0.599998H17.424C19.024 0.599998 19.536 1.656 18.608 2.936L13.552 9.848L19.952 20.696C20.72 22.008 20.144 23 18.608 23H14.736C13.68 23 12.976 22.584 12.464 21.624L9.296 15.672L7.536 18.072V21.08ZM37.0498 19.544H30.7458L30.2978 21.336C30.0098 22.456 29.3378 23 28.1858 23H24.4098C23.0338 23 22.3938 22.136 22.8098 20.824L28.6018 2.2C28.9218 1.144 29.6578 0.599998 30.7778 0.599998H37.0498C38.1698 0.599998 38.8738 1.144 39.1938 2.2L45.0178 20.824C45.4338 22.136 44.7938 23 43.4178 23H39.6418C38.5218 23 37.8178 22.424 37.5298 21.336L37.0498 19.544ZM32.1858 13.976H35.6418L33.9138 7.256L32.1858 13.976ZM55.7548 15.256V21.08C55.7548 22.328 55.0828 23 53.8348 23H50.3148C49.0668 23 48.3948 22.328 48.3948 21.08V2.52C48.3948 1.272 49.0668 0.599998 50.3148 0.599998H57.2588C63.2108 0.599998 67.1468 2.872 67.1468 7.928C67.1468 10.904 65.7708 12.92 63.4668 14.072L67.2748 20.696C68.0428 22.04 67.4348 23 65.9308 23H62.3787C61.3228 23 60.5868 22.552 60.1388 21.592L57.1308 15.256H55.7548ZM57.5148 9.88C59.0188 9.88 59.8828 9.336 59.8828 7.928C59.8828 6.552 59.0188 5.976 57.5148 5.976H55.7548V9.88H57.5148ZM75.621 6.488H71.589C70.341 6.488 69.669 5.816 69.669 4.568V2.52C69.669 1.272 70.341 0.599998 71.589 0.599998H87.013C88.261 0.599998 88.933 1.272 88.933 2.52V4.568C88.933 5.816 88.261 6.488 87.013 6.488H82.981V21.08C82.981 22.328 82.309 23 81.061 23H77.541C76.293 23 75.621 22.328 75.621 21.08V6.488ZM90.3723 11.8C90.3723 5.112 94.6603 0.216 101.54 0.216C108.42 0.216 112.708 5.112 112.708 11.8C112.708 18.488 108.42 23.384 101.54 23.384C94.6603 23.384 90.3723 18.488 90.3723 11.8ZM97.7963 11.8C97.7963 15.32 99.2043 17.432 101.54 17.432C103.876 17.432 105.284 15.32 105.284 11.8C105.284 8.28 103.876 6.168 101.54 6.168C99.2043 6.168 97.7963 8.28 97.7963 11.8ZM116.114 2.52C116.114 1.272 116.786 0.599998 118.034 0.599998H130.226C131.474 0.599998 132.146 1.272 132.146 2.52V4.312C132.146 5.56 131.474 6.232 130.226 6.232H123.506V9.304H129.106C130.354 9.304 131.026 9.976 131.026 11.224V13.016C131.026 14.264 130.354 14.936 129.106 14.936H123.506V21.08C123.506 22.328 122.834 23 121.586 23H118.034C116.786 23 116.114 22.328 116.114 21.08V2.52ZM147.175 19.544H140.871L140.423 21.336C140.135 22.456 139.463 23 138.311 23H134.535C133.159 23 132.519 22.136 132.935 20.824L138.727 2.2C139.047 1.144 139.783 0.599998 140.903 0.599998H147.175C148.295 0.599998 148.999 1.144 149.319 2.2L155.143 20.824C155.559 22.136 154.919 23 153.543 23H149.767C148.647 23 147.943 22.424 147.655 21.336L147.175 19.544ZM142.311 13.976H145.767L144.039 7.256L142.311 13.976ZM158.52 2.52C158.52 1.272 159.192 0.599998 160.44 0.599998H164.184C165.24 0.599998 165.976 1.016 166.456 1.976L171.256 11.32V2.52C171.256 1.272 171.928 0.599998 173.176 0.599998H176.504C177.752 0.599998 178.424 1.272 178.424 2.52V21.08C178.424 22.328 177.752 23 176.504 23H172.76C171.704 23 170.968 22.584 170.488 21.624L165.688 12.28V21.08C165.688 22.328 165.016 23 163.768 23H160.44C159.192 23 158.52 22.328 158.52 21.08V2.52ZM182.674 20.184C182.674 18.392 184.082 16.984 185.874 16.984C187.666 16.984 189.074 18.392 189.074 20.184C189.074 21.976 187.666 23.384 185.874 23.384C184.082 23.384 182.674 21.976 182.674 20.184ZM193.332 2.52C193.332 1.272 194.004 0.599998 195.252 0.599998H198.996C200.052 0.599998 200.788 1.016 201.268 1.976L206.068 11.32V2.52C206.068 1.272 206.74 0.599998 207.988 0.599998H211.316C212.564 0.599998 213.236 1.272 213.236 2.52V21.08C213.236 22.328 212.564 23 211.316 23H207.572C206.516 23 205.78 22.584 205.3 21.624L200.5 12.28V21.08C200.5 22.328 199.828 23 198.58 23H195.252C194.004 23 193.332 22.328 193.332 21.08V2.52ZM217.582 2.52C217.582 1.272 218.254 0.599998 219.502 0.599998H223.022C224.27 0.599998 224.942 1.272 224.942 2.52V17.112H231.822C233.07 17.112 233.742 17.784 233.742 19.032V21.08C233.742 22.328 233.07 23 231.822 23H219.502C218.254 23 217.582 22.328 217.582 21.08V2.52Z" fill="white"/>
</svg>
